<!--?xml version="1.0" encoding="utf-8"?-->
<!-- Generator: Adobe Illustrator 28.0.0, SVG Export Plug-In . SVG Version: 6.00 Build 0)  -->
<svg version="1.1" id="Layer_1" xmlns="http://www.w3.org/2000/svg" xmlns:xlink="http://www.w3.org/1999/xlink" x="0px" y="0px" viewBox="0 0 720 360" style="" xml:space="preserve">
<style type="text/css">
	.st0{fill:none;stroke:#2F53AD;stroke-miterlimit:10;}
</style>
<g>
	<path class="st0 AjudPWFj_0" d="M141.96,192.7c0,1.7,0.1,3.3,0.2,4.9c0.1,1.1,0.2,2.2,0.1,3.3c0,0.4-0.2,0.8-0.2,1.3c0,0.4,0.1,0.8,0.1,1.3
		c-0.1,1.2-0.1,2.5-0.2,3.8c0,0.7,0,1.3-0.2,2v0.1c0.1,0.5-0.1,0.9-0.3,1.3c-0.3,0.3-0.7,0.5-1,0.6c-0.3,0.1-0.5,0.3-0.7,0.5
		c-0.1,0.2-0.4,0.4-0.6,0.3c-0.4-0.1-0.8-0.1-1-0.5c-0.3-0.5-0.7-0.9-0.5-1.6c-0.4-0.7-0.2-1.6-0.3-2.4c0-0.6-0.1-1.3-0.1-1.9v-0.1
		c0-1.2-0.2-2.3-0.1-3.5c0.1-0.8,0.1-1.7,0.1-2.5c0-0.6-0.1-1.2-0.1-1.8c-0.1-0.5,0.1-1.1-0.2-1.6c0-0.7,0-1.4,0-2.1v-0.9
		c0-0.5-0.1-0.9-0.1-1.4c0-0.7,0.1-1.4,0.1-2c0-0.5,0.1-1,0-1.5c-0.1-0.2-0.1-0.4-0.1-0.6c0-0.3-0.1-0.7-0.1-1.1v-0.2
		c0.1-0.9-0.2-1.8,0.1-2.8c0-0.2-0.1-0.5-0.1-0.8c0.1-1.4,0.1-2.8,0.1-4.2c0.1-1.3,0.1-2.7,0.2-4.1c0-1.1,0.1-2.3,0.1-3.5
		c0-0.1,0.1-0.3,0.1-0.5v-0.8c0-0.4-0.1-0.8-0.1-1.3c0-1.3,0-2.7-0.1-4c0-0.5-0.1-1-0.1-1.6c-0.1-0.1-0.1-0.3-0.1-0.5s0-0.5-0.1-0.7
		v-0.3c0.1-0.8-0.1-1.5,0-2.2c0-0.6,0.1-1.3-0.1-1.9v-0.3c0-0.7,0.1-1.4,0.2-2.2c0-0.2-0.1-0.4-0.1-0.5c0-0.5,0-1,0.1-1.4
		c0-0.5-0.2-0.9-0.3-1.2c-0.1-0.2-0.2-0.4,0-0.6l0.3-0.7c0.3-0.5,0.5-1,0.8-1.4s0.7-0.5,1.1-0.2l1.8,1.2c0.1,0.1,0.2,0.2,0.2,0.4
		c0.1,0.2,0.2,0.5,0.2,0.7c0.1,0.9,0.1,1.8,0.2,2.8c0,0.1,0,0.3-0.1,0.5c0,0.1-0.1,0.2,0,0.3c0.3,0.6,0,1.3,0,1.9
		c0.1,0.7,0,1.3,0.1,1.9c0.1,0.6,0,1.2,0,1.7c0,1.1,0.2,2.1,0.4,3.1c0.2,1.1,0.3,2.1,0.2,3.2c-0.1,0.8,0,1.7,0.2,2.5
		c0,0.6,0.1,1.2,0.1,1.8l-0.3,2.1c0,0.3,0,0.6,0,0.9v0.4c-0.2,0.8,0,1.7,0,2.5c0,0.8,0,1.6,0,2.4v2c-0.1,0.9-0.1,1.8-0.1,2.7
		c0,0.7,0.1,1.3,0.1,1.9c0.1,0.3,0.2,0.4,0.5,0.3l0.2-0.2c0.7-0.7,1.5-1.2,2.3-1.7c0.2-0.1,0.4-0.2,0.5-0.4c0.5-0.8,1.5-1.3,2-2.2
		c0.1-0.1,0.2-0.2,0.4-0.3c0.3-0.4,0.6-0.7,0.9-1.1l0.3-0.4c0.9-0.7,1.3-1.7,1.9-2.6c0.1,0,0.1-0.1,0.1-0.1c0.6-0.8,1.2-1.6,1.7-2.4
		c0.4-0.4,0.6-0.9,0.9-1.3c0.4-0.6,0.8-1.2,1.1-1.8c0.2-0.3,0.3-0.6,0.4-0.9c0.4-0.7,0.8-1.4,1.1-2.1c0.3-0.7,0.7-1.4,0.9-2
		c0.5-1.2,0.8-2.3,1.2-3.4c0.3-0.8,0.7-1.6,0.9-2.4c0.3-0.7,0.4-1.5,0.6-2.2l0.5-2c0.4-1.3,0.8-2.5,1.2-3.8l0.1-0.4
		c-0.1-1,0.4-2,0.7-2.9v-0.1c0.5-0.3,0.7-0.8,1-1.3c0.1-0.3,0.6-0.3,0.9-0.1c0.1,0.1,0.2,0.3,0.3,0.4l0.9,0.7
		c0.4,0.2,0.6,0.5,0.6,0.9c0.1,1.3-0.1,2.5-0.5,3.7l-0.3,1c-0.1,0.7-0.2,1.3-0.3,2v0.3c-0.3,0.8-0.5,1.7-0.8,2.5l-0.3,1.5
		c-0.1,0.5-0.3,0.9-0.5,1.4c-0.1,0.2-0.2,0.4-0.2,0.6c-0.1,0.5-0.2,0.9-0.4,1.3c-0.3,0.6-0.4,1.2-0.6,1.8l-0.6,1.7
		c-0.1,0.3-0.2,0.5-0.2,0.8c-0.1,0.4-0.3,0.7-0.5,1c-0.3,0.5-0.5,1.1-0.8,1.6c-0.1,0.3-0.2,0.5-0.4,0.7c-0.3,0.4-0.6,0.7-0.7,1.1
		v0.1c-0.2,0.4-0.5,0.7-0.6,1.3c-0.1,0.4-0.5,0.8-0.7,1.2c-0.3,0.7-0.8,1.1-1.1,1.7c-0.2,0.3-0.5,0.6-0.8,0.8
		c-0.2,0.2-0.4,0.4-0.5,0.7c0,0.3-0.2,0.5-0.4,0.7c-0.4,0.3-0.8,0.7-1,1.2c-0.1,0.3-0.3,0.6-0.5,0.9c-0.4,0.5-0.8,1-1.3,1.5
		c-0.1,0.2-0.3,0.3-0.5,0.5l-0.3,0.3c0,0.4-0.2,0.5-0.5,0.7c-0.2,0.1-0.4,0.3-0.5,0.4l-0.8,0.9c-0.3,0.2-0.6,0.5-0.8,0.8
		c-0.3,0.3-0.7,0.5-1,0.8c-0.5,0.3-1,0.7-1.5,1.1c-0.2,0.2-0.4,0.4-0.1,0.7c0.4,0.5,0.5,1.1,1,1.5l0.1,0.1c1.6,2.6,2.4,3.8,4.3,6.1
		c0.5,0.7,0.9,1.4,1.3,2.1l0.4,0.4c0.2,0.3,0.4,0.6,0.7,0.9c0.2,0.3,0.4,0.6,0.7,0.9c0.2,0.3,0.5,0.7,0.8,1c0.6,0.7,1.1,1.3,1.7,1.9
		c0.5,0.6,1.1,1,1.8,1.4c0.8,0.5,1.7,0.9,2.4,1.7c0.3,0.3,0.8,0.6,1.1,1c0.4,0.3,0.3,0.6,0,0.8c-0.2,0.2-0.4,0.3-0.5,0.4
		c-0.3,0.3-0.6,0.5-0.9,0.4c-0.6,0-1.1,0.2-1.7,0.3c-0.3,0.1-0.5,0-0.7-0.2c-0.4-0.3-0.8-0.6-1.3-0.7c-0.9-0.4-1.6-0.9-2.4-1.5
		c-0.5-0.3-0.9-0.9-1.3-1.3l-0.5-0.5c-0.4-0.3-0.8-0.6-1-1.1c0,0-0.1-0.2-0.2-0.2c-0.6-0.1-0.8-0.7-1.1-1.1c-0.3-0.5-0.6-0.9-1-1.3
		c-0.4-0.3-0.7-0.7-0.8-1.2c-0.1-0.3-0.3-0.6-0.6-0.8c-0.4-0.4-0.8-0.9-1.1-1.4c-0.4-0.4-0.7-0.8-1-1.2c-0.5-0.4-0.8-0.9-1-1.4
		s-0.5-0.9-0.8-1.3c-0.2-0.5-0.5-0.9-0.9-1.3c-0.2-0.2-0.4-0.7-0.6-1c-0.1-0.2-0.2-0.4-0.3-0.6l-0.3-0.2c-0.1,0.1-0.2,0.2-0.2,0.3
		C141.86,192.3,141.96,192.5,141.96,192.7z"></path>
	<path class="st0 AjudPWFj_1" d="M188.16,208.6c0-0.3,0-0.7,0.2-1.2c0.2-0.7,0.3-1.4,0.5-2.2l0.6-2.8c0.1-0.6,0.2-1.2,0.2-1.8
		c0.1-0.4,0.1-0.8,0.1-1.2c0-0.1,0-0.2,0.1-0.3c0-0.3,0.1-0.5,0.1-0.8c0.1-1.2,0.2-2.3,0.4-3.5c0.1-0.3-0.2-0.9-0.6-1
		c-0.4-0.1-0.9-0.2-1.3,0c-0.4,0-0.8,0.1-1.1-0.1c-0.1-0.1-0.3-0.1-0.4-0.1c-0.5,0.1-1,0.1-1.6,0.1c-0.5,0-1.1,0-1.6-0.1
		c-0.2,0-0.4,0.1-0.6,0.2c-0.3,0.2-0.8,0.3-1.2,0.4c-0.5,0-0.9,0-1.4,0.1c-0.5,0.1-1.1,0.2-1.6,0.4c-0.3,0-0.5,0.1-0.7,0.2
		c-0.3,0.1-0.5,0.3-0.5,0.6c0.1,0.7,0,1.5,0.2,2.1c0.1,0.1,0.1,0.2,0.1,0.3c-0.1,1,0.1,2,0.2,2.9v0.2c-0.1,1.1,0.2,2.1,0.4,3.2
		c0,0.7,0.1,1.3,0.2,2l0.3,1.3c0.1,0.1,0.2,0.2,0.2,0.3c0,0.8,0.2,1.5,0.1,2.3c0,0.5-0.3,0.8-0.6,1.2c-0.1,0-0.2,0.1-0.3,0.1
		c-0.4-0.1-0.8-0.2-1-0.5c-0.1-0.3-0.4-0.4-0.7-0.5c-1-0.2-1.6-0.9-1.9-1.9v-0.2c0.1-0.3,0-0.6-0.1-0.8c-0.2-0.3-0.3-0.7-0.5-1
		c-0.1-0.2-0.1-0.4-0.2-0.6c-0.2-0.3-0.2-0.7-0.2-1c-0.1-0.5-0.3-1-0.4-1.4c0-0.3-0.1-0.6-0.1-0.8c-0.1-1.4-0.3-2.7-0.6-3.9
		c0-0.1-0.1-0.1-0.1-0.2c0.2-0.9-0.3-1.8-0.3-2.8l-0.3-2.8c-0.1-0.3-0.4-0.6-0.2-0.9c-0.2-1-0.1-2-0.1-3v-7.4c0-1,0.2-2,0.2-3
		c0.1-0.2,0-0.4,0.1-0.5c0-0.8,0.1-1.5,0.2-2.3c0-0.7,0.1-1.5,0.2-2.2c0-0.6,0.1-1.1,0.2-1.7c0-0.2,0.1-0.4,0.1-0.6l0.3-2.2
		c0.1-1.2,0.1-2.5,0.3-3.8c0.1-0.6,0.2-1.4,0.5-2c0.2-0.6,0.4-1.2,0.6-1.8l1.2-3.8c0.2-0.6,0.5-1.1,0.7-1.7c0.2-1,0.8-1.9,1.2-2.8
		l0.2-0.5c0.2-0.4,0.4-0.8,0.7-1.2c0.1-0.1,0.2-0.2,0.3-0.4c0.2-0.5,0.7-0.9,1.1-1.4c0.2-0.1,0.3-0.3,0.5-0.6
		c0.3-0.6,0.8-0.8,1.4-0.4c0.3,0.1,0.5,0.1,0.8-0.1c0.5-0.4,1.1-0.2,1.6,0c0.5,0.2,0.9,0.3,1.4,0.4c0.6,0.1,1.1,0.2,1.5,0.6
		c0.1,0.1,0.2,0.2,0.3,0.2c0.5,0.3,1,0.6,1.3,1.1c0.2,0.4,0.6,0.8,1,1c0.3,0.3,0.6,0.5,0.7,0.9c0,0.2,0.1,0.3,0.2,0.4
		c0.6,0.8,1.2,1.6,1.6,2.5c0.2,0.4,0.4,0.9,0.5,1.3v0.1c0.5,0.8,0.6,1.8,0.8,2.7c0.1,0.1,0.1,0.3,0.1,0.5c-0.1,0.5,0.1,1.1,0.2,1.6
		c0.1,1,0.5,1.9,0.8,2.9c0.1,0.5,0.2,0.9,0.2,1.4c0,0.7,0.1,1.3,0.2,1.9v0.9c-0.1,0.4-0.1,0.7-0.1,1.1c0.2,0.8,0.2,1.6,0.2,2.3
		c-0.1,0.5,0.1,0.9,0.1,1.4c0.1,0.5,0,1.1,0,1.6c0,0.2,0,0.5,0.1,0.7c0.1,0.6,0.1,1.1,0.1,1.6c0.1,0.1,0,0.2,0,0.3
		c-0.2,0.7-0.1,1.3-0.1,2c0,0.4,0.1,0.8-0.2,1.1v0.2c0.1,0.7,0.1,1.3,0,1.9c-0.2,0.8,0,1.5-0.1,2.2c0,0.7,0.1,1.3,0.1,2
		c0,0.1-0.1,0.3-0.1,0.5c0,0-0.1,0.1-0.1,0.2c0.3,0.8-0.2,1.6-0.1,2.3c0,0.2-0.1,0.4-0.1,0.6c-0.5,1.3-0.6,2.7-0.7,4.1
		c-0.1,0.6,0.1,1.3,0,1.9c0,0.7-0.1,1.3-0.2,1.9c-0.2,1.5-0.6,2.9-0.9,4.4v0.1c0.1,0.5-0.1,1-0.2,1.5c0,0.5-0.2,1-0.3,1.5
		c-0.1,0.4-0.2,0.8-0.3,1.2l-0.6,2.2c-0.1,0.4-0.1,0.7-0.2,1c-0.1,0.8-0.8,1.2-1.5,0.8l-1-0.6c-0.2-0.2-0.4-0.4-0.4-0.6
		c-0.1-0.5-0.4-1-0.3-1.6V208.6z M191.16,166.7h0.1V166c0-0.5,0-0.9-0.2-1.3c-0.1-0.1-0.1-0.2-0.1-0.3c-0.2-1.1-0.4-2.2-0.7-3.3
		c-0.1-0.5-0.2-1-0.3-1.6l-0.3-1.6c0-0.1,0-0.2-0.1-0.3c-0.2-0.6-0.5-1.1-0.8-1.7c-0.1-0.5-0.4-0.8-0.6-1.2
		c-0.2-0.3-0.5-0.5-0.9-0.6c-0.4-0.2-0.9-0.4-1.4-0.5c-1.1-0.3-1.9-0.1-2.4,1c-0.3,0.6-0.5,1.3-0.9,1.8c-0.5,0.8-0.9,1.7-1.2,2.5
		c-0.7,1.3-1,2.7-1.2,4.1c-0.1,0.7-0.3,1.3-0.4,1.9c-0.2,0.7-0.4,1.4-0.7,2.1c-0.5,1.3-0.6,2.7-0.6,4.1c0,1-0.2,2-0.1,3
		c0,1.1-0.3,2.1-0.4,3.1c0,0.8-0.2,1.5-0.2,2.3v0.4c-0.3,0.5-0.2,1-0.3,1.6v0.7c0,0.6-0.1,1.1,0,1.6c0,0.2,0.1,0.3,0,0.4
		c-0.2,0.5-0.2,1.1-0.1,1.6c0.1,0.2,0,0.3,0,0.5c0,0.8-0.1,1.5,0.2,2.2c0.1,0.2,0,0.5,0,0.7c0,0.4,0,0.4,0.4,0.5
		c0.2,0,0.4,0,0.6-0.1c0.9-0.3,1.7-0.5,2.7-0.3h0.2c0.5-0.1,1-0.1,1.4-0.1c0.5,0,1-0.2,1.5-0.2h2.3c0.6,0,1.1,0.3,1.7,0h0.1
		c0.6,0.1,1.2,0.1,1.7,0.2c0.4,0,0.6-0.1,0.6-0.6v-0.4c0.3-1.6,0.3-3.2,0.3-4.8c0-0.6,0.1-1.3,0.1-1.9c0.1-0.9,0.1-1.8,0.2-2.6
		c0-0.6,0-1.2,0.1-1.8v-0.7c0-1.2,0-2.4,0.1-3.6c0-0.2,0.1-0.5,0-0.7c0-1-0.2-2-0.2-2.9C191.36,168.4,191.26,167.6,191.16,166.7z"></path>
	<path class="st0 AjudPWFj_2" d="M202.56,208.2c-0.1-1-0.3-2.3-0.4-3.6c-0.1-1-0.2-2.1-0.1-3.1c0.1-0.3,0.1-0.6,0-0.8c0-1.3-0.2-2.5-0.2-3.7
		c-0.1-1-0.2-2.1-0.2-3.2c0-0.4,0-0.8,0.1-1.2c0.2-0.7,0.1-1.5,0.1-2.2c-0.1-1-0.2-2.1-0.2-3.1c0-0.5,0.1-1,0.1-1.5
		c0-0.6-0.1-1.1,0.1-1.7c0-0.1,0-0.3,0-0.5v-1.3c0-0.3,0-0.5-0.1-0.8c-0.1-0.3-0.1-0.7-0.1-1c0-1,0-1.9-0.1-2.8c0-0.3,0-0.6-0.1-0.8
		c0-0.2,0-0.3,0-0.4v-3.4c-0.1-1.2,0-2.4,0.1-3.6c0.1-1.2,0-2.3,0.1-3.4c0-0.9,0.1-1.8,0.1-2.7c0-0.7,0-1.3,0-2v-0.9
		c0.1-0.2,0.1-0.5,0.1-0.7c0-1-0.1-2.1-0.1-3.1v-0.8c0-0.3,0.1-0.6,0.1-1c0-0.6,0.1-1.2-0.2-1.8c-0.1-0.4,0-0.7,0.3-0.9
		c0.2-0.2,0.3-0.3,0.3-0.6c-0.1-0.4,0.2-0.6,0.4-0.8l1.8-1.2c0.1-0.1,0.2,0,0.3,0c0.2,0.7,0.7,1,1.1,1.5c0.2,0.4,0.5,0.9,0.8,1.3
		c0.9,1.1,1.8,2.3,2.6,3.6c0.3,0.4,0.6,0.9,0.8,1.4c0.3,0.6,0.6,1.2,0.8,1.8c0.2,0.3,0.4,0.7,0.6,1.1c0.1,0.3,0.2,0.5,0.4,0.8
		c0,0.1,0,0.3,0.1,0.3c0.6,0.7,0.8,1.6,1,2.4c0.3,0.9,0.4,1.8,0.7,2.7c0.4,1.1,0.7,2.2,1.3,3.3c0.5,0.8,0.7,1.7,1.1,2.5
		c0.1,0.3,0.2,0.5,0.2,0.8c0.5,1.2,0.9,2.4,1.3,3.7c0.1,0.4,0.2,0.8,0.4,1.1c0.4,0.8,0.6,1.6,0.9,2.4c0.3,1.4,0.8,2.7,1.2,4.1
		c0.2,0.5,0.3,1,0.4,1.6c0.1,0.5,0.3,1,0.5,1.6c0.1,0.5,0.3,1.1,0.4,1.7c0.3,0.9,0.6,1.8,0.8,2.8c0.1,0.5,0.1,1,0.4,1.5v0.2
		c0.2,0.3,0.4,0.5,0.5,0.4c0.2-0.1,0.1-0.3,0.1-0.5v-1.4c0-0.1,0.1-0.3,0-0.4c-0.1-0.2-0.1-0.4,0.1-0.6c0-0.1,0-0.2,0.1-0.4
		c0-0.3,0-0.7,0-1v-0.2c-0.2-0.4,0-0.8,0.1-1.3c0-0.1,0.1-0.3,0.1-0.5c-0.1-0.4,0-0.7,0.1-1.1v-0.6c-0.1-0.3,0-0.7,0.1-1
		c0.2-0.2,0.4-0.4,0.3-0.7l0.1-0.1c0.6,0,0.2-0.4,0.2-0.7s0.1-0.5,0-0.8c-0.1-0.3-0.1-0.6-0.4-0.8c-0.1-0.1-0.2-0.3-0.1-0.4
		c0.2-0.3,0.1-0.5,0-0.7c-0.1-0.2,0-0.3,0-0.5c0-0.7,0.1-1.4,0.2-2v-0.3c0-0.8-0.1-1.7-0.1-2.5c-0.1-0.2,0-0.4,0-0.6
		c0.3-0.8,0.3-1.7,0.4-2.6c0-0.6,0.1-1.2,0.1-1.8v-0.1c0.1-1,0.1-2,0.2-3c0.1-1.1,0-2.2,0-3.3c0-0.3,0-0.6,0.1-0.9
		c0.1-0.2,0.1-0.4,0.1-0.6c0-0.5,0-1,0.1-1.5c0.1-0.8,0-1.6,0-2.4c0-0.3,0.1-0.6,0.1-1c0.1-0.8,0-1.7-0.2-2.5c0-0.5,0-1,0.1-1.5v-1
		c0-0.9,0.3-1.7,0.8-2.4c0.1-0.1,0.3-0.2,0.5-0.4l0.4-0.3c0.2-0.5,0.7-0.6,1.1-0.7c0.3-0.1,0.6,0,0.7,0.3c0.2,0.5,0.4,0.9,0.7,1.3
		c0.2,0.2,0.2,0.5,0.3,0.7c0.1,0.4,0.2,0.9,0.3,1.3v0.4c-0.1,1.3,0,2.6,0,3.9c0,0.8,0,1.7,0,2.5v0.3c-0.4,1-0.3,2.1-0.4,3.2
		c-0.1,0.8-0.1,1.7-0.1,2.6c-0.1,0.8-0.2,1.5-0.2,2.3c-0.1,0.5-0.2,0.9-0.1,1.4c0.1,0.3,0.1,0.7,0,1.1l-0.2,2c-0.2,1-0.2,2-0.3,3
		c0,0.8-0.1,1.7-0.2,2.5v0.3c0.1,0.9-0.1,1.7-0.1,2.6c0,0.8-0.2,1.5-0.3,2.3v0.1c0.1,0.8,0,1.6,0,2.4l-0.3,2.9c0,0.5-0.1,1-0.1,1.6
		c0,0.8,0,1.7,0,2.6v1.6c0,0.9,0,1.8,0,2.6v4.3c0,0.6-0.1,1.3-0.1,1.9c0,0.4,0,0.8,0.1,1.2c0,0.6-0.1,1.2-0.3,1.8
		c-0.1,0.2-0.2,0.5-0.2,0.8c0,0.3,0,0.5-0.2,0.8c-0.5,0.5-0.7,1.2-0.9,1.8c-0.2,0.5-0.5,0.8-1,1c-1.4,0.4-2.2,0.1-2.8-1.2l-1.2-2.1
		c-0.3-1-0.6-1.9-0.7-2.9c0-0.4-0.1-0.7-0.2-1c0-0.5-0.1-1-0.1-1.6c0,0,0-0.1-0.1-0.1c-0.4-1.1-0.4-2.1-0.6-3.2
		c-0.1-0.7-0.2-1.4-0.5-2c-0.5-1-0.7-2.1-0.9-3.1c-0.2-0.6-0.4-1.1-0.5-1.7c-0.1-0.1-0.1-0.2-0.1-0.3c-0.1-1.2-0.6-2.3-0.9-3.4
		c-0.3-0.6-0.5-1.3-0.6-2c0-0.2,0-0.3-0.1-0.4c-0.3-0.8-0.4-1.5-0.7-2.3c-0.4-0.9-0.7-1.7-1-2.6c-0.1-0.5-0.3-1-0.5-1.4
		c-0.6-1.2-0.9-2.5-1.2-3.7c-0.2-0.7-0.5-1.3-0.7-2c-0.6-0.9-0.8-1.9-1.4-2.7c-0.5-0.8-0.7-1.7-0.9-2.5c-0.2-1-0.5-1.9-0.7-2.8
		c0-0.1,0-0.2-0.1-0.3c-0.4-0.9-0.9-1.8-1.3-2.6c-0.1-0.2-0.3-0.4-0.4-0.5c-0.1-0.2-0.3-0.3-0.4-0.2c-0.1,0.1-0.2,0.3-0.2,0.4
		c0,1.2,0,2.5-0.1,3.7l-0.1,1c-0.1,0.9-0.1,1.7-0.1,2.5c-0.1,0.5-0.1,0.9-0.1,1.4c0,0.6,0.1,1.2-0.1,1.8v0.5c0.3,1.5,0.2,3,0.3,4.5
		c0.1,0.5,0.1,1,0.1,1.5v4.5c0,2.4,0,4.8,0,7.2v3.3c0,1.5,0.1,3,0.2,4.4c0,0.9,0.1,1.7,0.1,2.6c0,0.7-0.1,1.4,0.1,2.1v0.1
		c-0.1,0.7,0.1,1.4,0.2,2.1c0.1,1.4,0.2,2.9,0.6,4.2c0.2,0.6,0.2,0.6-0.3,0.9c-0.5,0.2-0.9,0.5-1.4,0.8c-0.2,0.2-0.5,0.3-0.8,0.5
		c-0.7,0.3-1.2,0.1-1.6-0.5C202.56,210.5,202.45,209.5,202.56,208.2z"></path>
	<path class="st0 AjudPWFj_3" d="M236.25,202.1l-0.3-3.3c0-0.7-0.1-1.5-0.1-2.2c0-1.3-0.1-2.6-0.1-3.9c0-0.3,0.1-0.7,0.1-1.1
		c-0.1-2.5-0.1-5-0.1-7.5c0-1.9,0.1-3.8,0.1-5.6V173c0-0.8,0.1-1.6,0.2-2.5c0-0.1,0-0.3,0-0.5v-2.7c0-0.6,0-1.1,0.3-1.7v-0.4
		c0.1-0.6,0-1.1,0.3-1.7c0.2-0.4,0.2-0.9,0.2-1.4c0-0.9,0-1.9,0.1-2.8c0-0.3,0.1-0.5,0.1-0.8c0.1-0.6,0.1-1.2,0.2-1.7
		c0.2-1,0.1-1.9,0.3-2.9c0.2-0.6,0.3-1.3,0.5-2c0.1-0.2,0.2-0.4,0.3-0.6l0.6-1.1c0.2-0.4,0.8-0.8,1.4-0.7l1.3,0.3
		c0.3,0.1,0.5,0.1,0.7,0.1c0.8-0.1,1.6,0.1,2.3,0.3c0.8,0.2,1.6,0.5,2.4,0.7l1.1,0.2c1.2,0.3,2.4,0.8,3.4,1.5c0.2,0,0.3,0.1,0.4,0.2
		c0.7,0.7,1.6,1.2,2.4,1.8c0.8,0.6,1.4,1.4,2,2.2c0.5,0.7,0.7,1.5,1.1,2.3c0.1,0.3,0.2,0.6,0.2,1v2.4c0,0.3-0.1,0.5-0.1,0.8
		c0,0.3,0,0.5-0.2,0.8v0.2c0.1,0.6-0.3,1.1-0.5,1.7c-0.2,0.4-0.5,0.8-0.6,1.2l-0.9,2c-0.2,0.3-0.5,0.5-0.8,0.8
		c-0.2,0.3-0.4,0.5-0.6,0.7c-0.5,0.7-0.9,1.3-1.6,1.8c-0.1,0-0.2,0.2-0.2,0.3c-0.3,0.2-0.7,0.5-1,0.6c-0.6,0.3-1.1,0.6-1.6,1
		c-0.4,0.2-0.4,0.4,0,0.7c0.1,0.1,0.3,0.2,0.5,0.3l0.4,0.3c0.5,0.3,0.9,0.7,1.4,0.8c0.1,0,0.2,0,0.3,0.1c0.8,0.7,1.7,1.4,2.5,2.2
		c0.5,0.4,0.9,1,1.3,1.5l0.6,0.9c0.3,0.3,0.5,0.6,0.5,1.1c0,0.1,0.1,0.3,0.2,0.5c0.5,1.1,0.8,2.3,0.8,3.6c0,0.4,0.1,0.9,0.2,1.3
		c0,0.3,0.1,0.6,0.1,1c0,0.5-0.1,1.1,0,1.7c0,0.6-0.1,1.2-0.4,1.7c-0.2,0.4-0.3,0.9-0.4,1.4c0,0.1,0,0.2-0.1,0.3
		c-0.1,0.5-0.3,0.8-0.4,1.3c-0.1,0.9-0.6,1.6-1,2.4c-0.3,0.7-0.7,1.4-0.9,2.1c0,0.3-0.3,0.5-0.4,0.7c-0.3,0.4-0.5,0.8-0.8,1.1
		l-0.8,0.9c-0.4,0.4-0.7,0.9-1.1,1.3c0,0.1-0.1,0.2-0.2,0.2c-1.1,1.1-2.2,2.2-3.3,3.2c-0.3,0.3-0.7,0.5-1,0.7
		c-0.1,0-0.3,0.1-0.3,0.2c-0.7,0.7-1.6,1.1-2.2,1.8c-0.2,0.2-0.3,0.3-0.5,0.4c-0.8,0.4-1.7,0.8-2.5,1.1s-1.6,0.6-2.3,0.8
		c-0.3,0.1-0.5,0-0.6-0.2c-0.1-0.2-0.3-0.3-0.4-0.4c-0.6-0.4-0.9-0.9-1.1-1.6c-0.1-0.3-0.1-0.5-0.2-0.8l-0.2-1.1
		c-0.3-0.9-0.5-1.8-0.7-2.7c-0.1-0.1-0.1-0.2-0.1-0.3c-0.1-1-0.2-1.9-0.3-2.8H236.25z M254.06,188.7v-0.5c-0.1-0.7-0.3-1.3-0.3-2
		c-0.1-1-0.5-1.9-1-2.7c-0.5-0.8-1-1.7-1.8-2.3l-0.9-0.7c-0.5-0.4-1.1-0.7-1.8-0.9c-0.2-0.1-0.5-0.1-0.7-0.2c-1-0.3-1.9-0.6-2.8-0.8
		c-0.6-0.1-1.3-0.1-1.9,0.1c-0.7,0.1-1.3,0.4-1.9,0.7c-0.3,0.2-0.6,0.3-1,0.4c-0.3,0-0.6,0.3-0.6,0.7c-0.1,0.5-0.1,1-0.1,1.6
		c0,0.3,0,0.7-0.1,1c-0.3,0.5-0.2,1.1-0.2,1.7c0.1,1,0.2,1.9,0.2,2.8c0.1,0.8,0,1.5,0,2.2c0,0.3,0.1,0.5,0.1,0.8s0.1,0.6,0.1,0.9
		c-0.1,1.1,0.1,2.1,0.2,3.2c0,0.7,0.1,1.4,0.1,2.1c0.1,0.9,0,1.9,0.3,2.8c0.1,0.3,0.1,0.6,0.1,0.9c0.1,0.9,0.1,1.9,0.2,2.9
		c0,0.3,0,0.6,0.1,0.8c0.2,0.6,0.3,1.2,0.3,1.8c0,0.5,0.2,0.7,0.7,0.4c0.1,0,0.1-0.1,0.2-0.1l1.3-0.6c1.6-0.6,2.8-1.6,4-2.8l0.9-0.8
		c0.1-0.1,0.3-0.2,0.4-0.4c0.9-1.1,1.9-2.2,2.7-3.4c0.4-0.5,0.7-1,1-1.5c0.5-1.1,1.1-2.2,1.4-3.4c0.2-0.9,0.5-1.8,0.7-2.6
		C254.06,190.1,254.06,189.5,254.06,188.7z M243.45,155.4c-0.6,0.1-1.1,0.1-1.6,0.2c-0.3,0.1-0.7,0.3-1,0.6
		c-0.1,0.1-0.2,0.3-0.2,0.5c-0.1,0.9-0.1,1.8-0.2,2.7v1.8c0,0.3,0,0.5-0.1,0.7c-0.1,0.6-0.3,1.2-0.3,1.8c0,0.3-0.1,0.7-0.2,1
		c-0.2,0.5-0.3,1-0.3,1.6v1.9c0,1.6,0,3.2-0.2,4.8c-0.1,0.2-0.1,0.5,0.1,0.7c0.3,0.1,0.5-0.1,0.7-0.2c0.4-0.2,0.7-0.4,1-0.6
		c0.3-0.1,0.5-0.2,0.7-0.4l0.9-0.7c0.7-0.3,1.3-0.7,1.9-1c0.5-0.3,0.9-0.5,1.4-0.7c0.4-0.2,0.7-0.3,1-0.5c0.7-0.3,1.3-0.7,1.9-1h0.1
		c0.7-0.1,1.3-0.6,1.9-0.9c0.4-0.3,0.8-0.6,1.1-1c0.5-1,1-1.9,1.3-3c0.3-1.1,0.3-2.2-0.2-3.3c-0.1-0.3-0.3-0.6-0.5-0.9
		c-0.7-1.2-1.6-2.1-2.8-2.7c-0.2,0-0.3-0.2-0.5-0.2c-1.2-0.2-2.2-0.8-3.4-0.8c0,0-0.1,0-0.1-0.1L243.45,155.4z"></path>
	<path class="st0 AjudPWFj_4" d="M280.65,208.6c0-0.3,0-0.7,0.2-1.2c0.2-0.7,0.3-1.4,0.5-2.2l0.6-2.8c0.1-0.6,0.2-1.2,0.2-1.8
		c0.1-0.4,0.1-0.8,0.1-1.2c0-0.1,0-0.2,0.1-0.3c0-0.3,0.1-0.5,0.1-0.8c0.1-1.2,0.2-2.3,0.4-3.5c0.1-0.3-0.2-0.9-0.6-1
		c-0.4-0.1-0.9-0.2-1.3,0c-0.4,0-0.8,0.1-1.1-0.1c-0.1-0.1-0.3-0.1-0.4-0.1c-0.5,0.1-1,0.1-1.6,0.1c-0.5,0-1.1,0-1.6-0.1
		c-0.2,0-0.4,0.1-0.6,0.2c-0.3,0.2-0.8,0.3-1.2,0.4c-0.5,0-0.9,0-1.4,0.1c-0.5,0.1-1.1,0.2-1.6,0.4c-0.3,0-0.5,0.1-0.7,0.2
		c-0.3,0.1-0.5,0.3-0.5,0.6c0.1,0.7,0,1.5,0.2,2.1c0.1,0.1,0.1,0.2,0.1,0.3c-0.1,1,0.1,2,0.2,2.9v0.2c-0.1,1.1,0.2,2.1,0.4,3.2
		c0,0.7,0.1,1.3,0.2,2l0.3,1.3c0.1,0.1,0.2,0.2,0.2,0.3c0,0.8,0.2,1.5,0.1,2.3c0,0.5-0.3,0.8-0.6,1.2c-0.1,0-0.2,0.1-0.3,0.1
		c-0.4-0.1-0.8-0.2-1-0.5c-0.1-0.3-0.4-0.4-0.7-0.5c-1-0.2-1.6-0.9-1.9-1.9v-0.2c0.1-0.3,0-0.6-0.1-0.8c-0.2-0.3-0.3-0.7-0.5-1
		c-0.1-0.2-0.1-0.4-0.2-0.6c-0.2-0.3-0.2-0.7-0.2-1c-0.1-0.5-0.3-1-0.4-1.4c0-0.3-0.1-0.6-0.1-0.8c-0.1-1.4-0.3-2.7-0.6-3.9
		c0-0.1-0.1-0.1-0.1-0.2c0.2-0.9-0.3-1.8-0.3-2.8l-0.3-2.8c-0.1-0.3-0.4-0.6-0.2-0.9c-0.2-1-0.1-2-0.1-3v-7.4c0-1,0.2-2,0.2-3
		c0.1-0.2,0-0.4,0.1-0.5c0-0.8,0.1-1.5,0.2-2.3c0-0.7,0.1-1.5,0.2-2.2c0-0.6,0.1-1.1,0.2-1.7c0-0.2,0.1-0.4,0.1-0.6l0.3-2.2
		c0.1-1.2,0.1-2.5,0.3-3.8c0.1-0.6,0.2-1.4,0.5-2c0.2-0.6,0.4-1.2,0.6-1.8l1.2-3.8c0.2-0.6,0.5-1.1,0.7-1.7c0.2-1,0.8-1.9,1.2-2.8
		l0.2-0.5c0.2-0.4,0.4-0.8,0.7-1.2c0.1-0.1,0.2-0.2,0.3-0.4c0.2-0.5,0.7-0.9,1.1-1.4c0.2-0.1,0.3-0.3,0.5-0.6
		c0.3-0.6,0.8-0.8,1.4-0.4c0.3,0.1,0.5,0.1,0.8-0.1c0.5-0.4,1.1-0.2,1.6,0c0.5,0.2,0.9,0.3,1.4,0.4c0.6,0.1,1.1,0.2,1.5,0.6
		c0.1,0.1,0.2,0.2,0.3,0.2c0.5,0.3,1,0.6,1.3,1.1c0.2,0.4,0.6,0.8,1,1c0.3,0.3,0.6,0.5,0.7,0.9c0,0.2,0.1,0.3,0.2,0.4
		c0.6,0.8,1.2,1.6,1.6,2.5c0.2,0.4,0.4,0.9,0.5,1.3v0.1c0.5,0.8,0.6,1.8,0.8,2.7c0.1,0.1,0.1,0.3,0.1,0.5c-0.1,0.5,0.1,1.1,0.2,1.6
		c0.1,1,0.5,1.9,0.8,2.9c0.1,0.5,0.2,0.9,0.2,1.4c0,0.7,0.1,1.3,0.2,1.9v0.9c-0.1,0.4-0.1,0.7-0.1,1.1c0.2,0.8,0.2,1.6,0.2,2.3
		c-0.1,0.5,0.1,0.9,0.1,1.4c0.1,0.5,0,1.1,0,1.6c0,0.2,0,0.5,0.1,0.7c0.1,0.6,0.1,1.1,0.1,1.6c0.1,0.1,0,0.2,0,0.3
		c-0.2,0.7-0.1,1.3-0.1,2c0,0.4,0.1,0.8-0.2,1.1v0.2c0.1,0.7,0.1,1.3,0,1.9c-0.2,0.8,0,1.5-0.1,2.2c0,0.7,0.1,1.3,0.1,2
		c0,0.1-0.1,0.3-0.1,0.5c0,0-0.1,0.1-0.1,0.2c0.3,0.8-0.2,1.6-0.1,2.3c0,0.2-0.1,0.4-0.1,0.6c-0.5,1.3-0.6,2.7-0.7,4.1
		c-0.1,0.6,0.1,1.3,0,1.9c0,0.7-0.1,1.3-0.2,1.9c-0.2,1.5-0.6,2.9-0.9,4.4v0.1c0.1,0.5-0.1,1-0.2,1.5c0,0.5-0.2,1-0.3,1.5
		c-0.1,0.4-0.2,0.8-0.3,1.2l-0.6,2.2c-0.1,0.4-0.1,0.7-0.2,1c-0.1,0.8-0.8,1.2-1.5,0.8l-1-0.6c-0.2-0.2-0.4-0.4-0.4-0.6
		c-0.1-0.5-0.4-1-0.3-1.6V208.6z M283.65,166.7h0.1V166c0-0.5,0-0.9-0.2-1.3c-0.1-0.1-0.1-0.2-0.1-0.3c-0.2-1.1-0.4-2.2-0.7-3.3
		c-0.1-0.5-0.2-1-0.3-1.6l-0.3-1.6c0-0.1,0-0.2-0.1-0.3c-0.2-0.6-0.5-1.1-0.8-1.7c-0.1-0.5-0.4-0.8-0.6-1.2
		c-0.2-0.3-0.5-0.5-0.9-0.6c-0.4-0.2-0.9-0.4-1.4-0.5c-1.1-0.3-1.9-0.1-2.4,1c-0.3,0.6-0.5,1.3-0.9,1.8c-0.5,0.8-0.9,1.7-1.2,2.5
		c-0.7,1.3-1,2.7-1.2,4.1c-0.1,0.7-0.3,1.3-0.4,1.9c-0.2,0.7-0.4,1.4-0.7,2.1c-0.5,1.3-0.6,2.7-0.6,4.1c0,1-0.2,2-0.1,3
		c0,1.1-0.3,2.1-0.4,3.1c0,0.8-0.2,1.5-0.2,2.3v0.4c-0.3,0.5-0.2,1-0.3,1.6v0.7c0,0.6-0.1,1.1,0,1.6c0,0.2,0.1,0.3,0,0.4
		c-0.2,0.5-0.2,1.1-0.1,1.6c0.1,0.2,0,0.3,0,0.5c0,0.8-0.1,1.5,0.2,2.2c0.1,0.2,0,0.5,0,0.7c0,0.4,0,0.4,0.4,0.5
		c0.2,0,0.4,0,0.6-0.1c0.9-0.3,1.7-0.5,2.7-0.3h0.2c0.5-0.1,1-0.1,1.4-0.1c0.5,0,1-0.2,1.5-0.2h2.3c0.6,0,1.1,0.3,1.7,0h0.1
		c0.6,0.1,1.2,0.1,1.7,0.2c0.4,0,0.6-0.1,0.6-0.6v-0.4c0.3-1.6,0.3-3.2,0.3-4.8c0-0.6,0.1-1.3,0.1-1.9c0.1-0.9,0.1-1.8,0.2-2.6
		c0-0.6,0-1.2,0.1-1.8v-0.7c0-1.2,0-2.4,0.1-3.6c0-0.2,0.1-0.5,0-0.7c0-1-0.2-2-0.2-2.9C283.85,168.4,283.75,167.6,283.65,166.7z"></path>
	<path class="st0 AjudPWFj_5" d="M294.55,206.6c0-1,0-2-0.1-2.9c0-0.3,0.1-0.7,0.1-1v-0.3c-0.3-2.5-0.3-5.1-0.4-7.6c0-0.3-0.1-0.5-0.1-0.8
		s0-0.6,0-1v-1.1c0-1.5,0-3-0.1-4.5v-2c0-0.6,0.1-1.2,0.1-1.8c0-0.1,0.1-0.2,0-0.2c-0.2-1.4-0.1-2.8-0.1-4.1c0-1.5,0-3,0-4.5v-6.6
		c0-0.8,0.2-1.5,0.2-2.3v-0.3c0-1.5,0-3,0-4.5v-2c0.1-0.6,0.1-1.1,0-1.7c0-0.6-0.1-1.1-0.1-1.7c0-0.3,0.1-0.5,0.1-0.8
		c0.1-0.7,0.2-1.5,0.2-2.3c0-0.2,0-0.5,0.1-0.7c0.1-0.2,0.2-0.3,0.3-0.3c0.3-0.2,0.6-0.4,0.7-0.7c0-0.1,0.1-0.2,0.2-0.2
		c0.6-0.3,1.2-0.6,1.8-0.6c0.2,0,0.4,0,0.5,0.1c0.2,0.3,0.6,0.3,0.9,0.3c1-0.1,2-0.1,3,0c0.8,0,1.6,0.1,2.4,0.2
		c0.7,0.2,1.5,0.5,2.2,0.7l1.7,0.3c0.8,0.1,1.5,0.5,2.2,0.7c0.5,0.1,0.8,0.3,1.2,0.6c0.4,0.2,0.8,0.4,1.2,0.7c0.1,0,0.2,0.1,0.3,0.2
		c0.5,0.6,1.1,1,1.7,1.4c0.2,0.1,0.3,0.2,0.4,0.4c0.4,0.7,0.7,1.4,1,2.1c0.8,1.4,0.6,2.9,0.4,4.4c-0.1,1.3-0.5,2.4-1.1,3.5
		c-0.2,0.4-0.5,0.6-0.7,1c-0.6,0.7-1.4,1.3-1.9,2c-0.1,0.2-0.3,0.3-0.4,0.5c-0.1,0.1-0.2,0.3-0.4,0.3c-0.5,0.2-0.7,0.7-1.2,0.9
		c-0.4,0.1-0.8,0.5-1.1,0.8c-0.9,0.5-1.8,1.2-2.8,1.5c-0.3,0.1-0.6,0.1-0.8,0.2c-0.3,0.1-0.4,0.3-0.2,0.6c0.3,0.3,0.7,0.6,1,1
		c0.2,0.2,0.5,0.4,0.7,0.7l1.4,1.8c0.3,0.5,0.7,1,0.7,1.6c0,0.1,0,0.2,0.1,0.3c0.5,1.3,0.9,2.7,1.2,4.1c0.1,0.5,0.1,1.1,0.2,1.6
		c0.3,1.6,0.2,3.2,0.4,4.8c0.1,1,0.2,2,0.4,3c0.1,1,0.3,2,0.5,3c0.2,0.9,0.4,1.7,0.9,2.5c0.3,0.6,0.9,1.1,1.7,1.1h0.3
		c0.7,0.2,0.9,0.4,0.7,1.1c-0.2,0.8-0.7,1.2-1.5,1.2c-0.1,0-0.3,0-0.4,0h-0.5c-0.7-0.2-1.4-0.5-2.1-0.8c-0.3,0-0.5-0.2-0.7-0.4
		c-0.2-0.1-0.3-0.4-0.6-0.5c-0.4-0.2-0.6-0.4-0.8-0.8c-0.8-1.2-1.4-2.4-1.5-3.9c-0.1-1-0.4-2-0.5-3l-0.3-2.7c0-0.8,0-1.7-0.2-2.5
		c-0.1-0.8-0.1-1.6-0.2-2.4c-0.2-0.6-0.2-1.3-0.4-2c-0.2-0.5-0.2-1.1-0.3-1.6c-0.2-0.8-0.5-1.6-0.9-2.4c-0.1-0.2-0.3-0.4-0.5-0.6
		c-0.2-0.3-0.5-0.6-0.8-0.8c-0.7-0.9-1.5-1.7-2.6-2.1c-0.5-0.2-1-0.2-1.6-0.3c-0.4-0.1-0.6,0.2-0.5,0.6c0.1,0.3,0.1,0.6,0.1,0.9
		c0,0.6-0.1,1.2-0.1,1.8c0,1.1,0.1,2.2,0.1,3.3c0.1,0.3,0.1,0.6,0.2,1v0.3c0.1,1.3,0.1,2.6,0,3.9c0,0.8,0,1.5-0.4,2.3v0.2
		c0.3,0.6,0.2,1.2,0.2,1.8c-0.1,0.8,0,1.7,0.1,2.5v1.2c0.1,1.3,0.1,2.7,0.2,4.1c0,0.7,0.2,1.3,0.3,2c0.1,1,0.2,2,0.2,3
		c0,0.4-0.1,0.8-0.2,1.2v0.1c0.1,0.6-0.2,1.2-0.1,1.9v0.1c-0.1,0.9,0.1,1.7-0.1,2.6l-0.3,1.8c-0.1,0.6-0.3,0.8-1,0.8
		c-0.1,0-0.3,0-0.5,0.1c-1,0.1-1.7-0.4-2.3-1.2c-0.5-0.6-0.9-1.4-0.9-2.2C294.65,207.9,294.55,207.2,294.55,206.6z M312.15,159.6
		c0.1-0.6-0.2-1.3-0.4-2c-0.2-0.8-0.8-1.3-1.6-1.5c-0.6-0.2-1.2-0.3-1.7-0.5c-1-0.6-2.2-0.8-3.3-1c-1-0.2-2.1-0.3-3.2-0.3
		c-0.1,0-0.3,0-0.4-0.1c-0.6-0.1-1.1,0-1.7,0.1c-0.5,0.1-0.6,0.2-0.6,0.8c0,1.3,0.2,2.5,0.1,3.7c0,0.2,0.1,0.3,0.1,0.5
		c0.1,0.6,0.2,1.2,0,1.8c-0.1,0.6,0,1.1,0,1.7c-0.1,0.2,0,0.3,0,0.5c0,1.2,0.2,2.5,0,3.7c-0.1,0.1-0.1,0.2,0,0.3
		c0.1,0.4,0,0.9-0.1,1.4c-0.1,0.6-0.1,1.2-0.1,1.8c0,0.3,0.2,0.4,0.5,0.2c0.7-0.4,1.3-0.9,2.1-1.1c0.9-0.2,1.8-0.6,2.6-0.9l2.6-0.9
		c0.4-0.2,0.7-0.4,1-0.7c0.2-0.3,0.5-0.5,0.8-0.7c0.2-0.2,0.5-0.3,0.7-0.5c0.5-0.5,0.9-1,1.2-1.5c0.3-0.4,0.6-0.8,0.8-1.2
		C311.95,162.1,312.25,161,312.15,159.6z"></path>
	<path class="st0 AjudPWFj_6" d="M363.25,192.7c0,1.7,0.1,3.3,0.2,4.9c0.1,1.1,0.2,2.2,0.1,3.3c0,0.4-0.2,0.8-0.2,1.3c0,0.4,0.1,0.8,0.1,1.3
		c-0.1,1.2-0.1,2.5-0.2,3.8c0,0.7,0,1.3-0.2,2v0.1c0.1,0.5-0.1,0.9-0.3,1.3c-0.3,0.3-0.7,0.5-1,0.6c-0.3,0.1-0.5,0.3-0.7,0.5
		c-0.1,0.2-0.4,0.4-0.6,0.3c-0.4-0.1-0.8-0.1-1-0.5c-0.3-0.5-0.7-0.9-0.5-1.6c-0.4-0.7-0.2-1.6-0.3-2.4c0-0.6-0.1-1.3-0.1-1.9v-0.1
		c0-1.2-0.2-2.3-0.1-3.5c0.1-0.8,0.1-1.7,0.1-2.5c0-0.6-0.1-1.2-0.1-1.8c-0.1-0.5,0.1-1.1-0.2-1.6c0-0.7,0-1.4,0-2.1v-0.9
		c0-0.5-0.1-0.9-0.1-1.4c0-0.7,0.1-1.4,0.1-2c0-0.5,0.1-1,0-1.5c-0.1-0.2-0.1-0.4-0.1-0.6c0-0.3-0.1-0.7-0.1-1.1v-0.2
		c0.1-0.9-0.2-1.8,0.1-2.8c0-0.2-0.1-0.5-0.1-0.8c0.1-1.4,0.1-2.8,0.1-4.2c0.1-1.3,0.1-2.7,0.2-4.1c0-1.1,0.1-2.3,0.1-3.5
		c0-0.1,0.1-0.3,0.1-0.5v-0.8c0-0.4-0.1-0.8-0.1-1.3c0-1.3,0-2.7-0.1-4c0-0.5-0.1-1-0.1-1.6c-0.1-0.1-0.1-0.3-0.1-0.5s0-0.5-0.1-0.7
		v-0.3c0.1-0.8-0.1-1.5,0-2.2c0-0.6,0.1-1.3-0.1-1.9v-0.3c0-0.7,0.1-1.4,0.2-2.2c0-0.2-0.1-0.4-0.1-0.5c0-0.5,0-1,0.1-1.4
		c0-0.5-0.2-0.9-0.3-1.2c-0.1-0.2-0.2-0.4,0-0.6l0.3-0.7c0.3-0.5,0.5-1,0.8-1.4s0.7-0.5,1.1-0.2l1.8,1.2c0.1,0.1,0.2,0.2,0.2,0.4
		c0.1,0.2,0.2,0.5,0.2,0.7c0.1,0.9,0.1,1.8,0.2,2.8c0,0.1,0,0.3-0.1,0.5c0,0.1-0.1,0.2,0,0.3c0.3,0.6,0,1.3,0,1.9
		c0.1,0.7,0,1.3,0.1,1.9c0.1,0.6,0,1.2,0,1.7c0,1.1,0.2,2.1,0.4,3.1c0.2,1.1,0.3,2.1,0.2,3.2c-0.1,0.8,0,1.7,0.2,2.5
		c0,0.6,0.1,1.2,0.1,1.8l-0.3,2.1c0,0.3,0,0.6,0,0.9v0.4c-0.2,0.8,0,1.7,0,2.5c0,0.8,0,1.6,0,2.4v2c-0.1,0.9-0.1,1.8-0.1,2.7
		c0,0.7,0.1,1.3,0.1,1.9c0.1,0.3,0.2,0.4,0.5,0.3l0.2-0.2c0.7-0.7,1.5-1.2,2.3-1.7c0.2-0.1,0.4-0.2,0.5-0.4c0.5-0.8,1.5-1.3,2-2.2
		c0.1-0.1,0.2-0.2,0.4-0.3c0.3-0.4,0.6-0.7,0.9-1.1l0.3-0.4c0.9-0.7,1.3-1.7,1.9-2.6c0.1,0,0.1-0.1,0.1-0.1c0.6-0.8,1.2-1.6,1.7-2.4
		c0.4-0.4,0.6-0.9,0.9-1.3c0.4-0.6,0.8-1.2,1.1-1.8c0.2-0.3,0.3-0.6,0.4-0.9c0.4-0.7,0.8-1.4,1.1-2.1c0.3-0.7,0.7-1.4,0.9-2
		c0.5-1.2,0.8-2.3,1.2-3.4c0.3-0.8,0.7-1.6,0.9-2.4c0.3-0.7,0.4-1.5,0.6-2.2l0.5-2c0.4-1.3,0.8-2.5,1.2-3.8l0.1-0.4
		c-0.1-1,0.4-2,0.7-2.9v-0.1c0.5-0.3,0.7-0.8,1-1.3c0.1-0.3,0.6-0.3,0.9-0.1c0.1,0.1,0.2,0.3,0.3,0.4l0.9,0.7
		c0.4,0.2,0.6,0.5,0.6,0.9c0.1,1.3-0.1,2.5-0.5,3.7l-0.3,1c-0.1,0.7-0.2,1.3-0.3,2v0.3c-0.3,0.8-0.5,1.7-0.8,2.5l-0.3,1.5
		c-0.1,0.5-0.3,0.9-0.5,1.4c-0.1,0.2-0.2,0.4-0.2,0.6c-0.1,0.5-0.2,0.9-0.4,1.3c-0.3,0.6-0.4,1.2-0.6,1.8l-0.6,1.7
		c-0.1,0.3-0.2,0.5-0.2,0.8c-0.1,0.4-0.3,0.7-0.5,1c-0.3,0.5-0.5,1.1-0.8,1.6c-0.1,0.3-0.2,0.5-0.4,0.7c-0.3,0.4-0.6,0.7-0.7,1.1
		v0.1c-0.2,0.4-0.5,0.7-0.6,1.3c-0.1,0.4-0.5,0.8-0.7,1.2c-0.3,0.7-0.8,1.1-1.1,1.7c-0.2,0.3-0.5,0.6-0.8,0.8
		c-0.2,0.2-0.4,0.4-0.5,0.7c0,0.3-0.2,0.5-0.4,0.7c-0.4,0.3-0.8,0.7-1,1.2c-0.1,0.3-0.3,0.6-0.5,0.9c-0.4,0.5-0.8,1-1.3,1.5
		c-0.1,0.2-0.3,0.3-0.5,0.5l-0.3,0.3c0,0.4-0.2,0.5-0.5,0.7c-0.2,0.1-0.4,0.3-0.5,0.4l-0.8,0.9c-0.3,0.2-0.6,0.5-0.8,0.8
		c-0.3,0.3-0.7,0.5-1,0.8c-0.5,0.3-1,0.7-1.5,1.1c-0.2,0.2-0.4,0.4-0.1,0.7c0.4,0.5,0.5,1.1,1,1.5l0.1,0.1c1.6,2.6,2.4,3.8,4.3,6.1
		c0.5,0.7,0.9,1.4,1.3,2.1l0.4,0.4c0.2,0.3,0.4,0.6,0.7,0.9c0.2,0.3,0.4,0.6,0.7,0.9c0.2,0.3,0.5,0.7,0.8,1c0.6,0.7,1.1,1.3,1.7,1.9
		c0.5,0.6,1.1,1,1.8,1.4c0.8,0.5,1.7,0.9,2.4,1.7c0.3,0.3,0.8,0.6,1.1,1c0.4,0.3,0.3,0.6,0,0.8c-0.2,0.2-0.4,0.3-0.5,0.4
		c-0.3,0.3-0.6,0.5-0.9,0.4c-0.6,0-1.1,0.2-1.7,0.3c-0.3,0.1-0.5,0-0.7-0.2c-0.4-0.3-0.8-0.6-1.3-0.7c-0.9-0.4-1.6-0.9-2.4-1.5
		c-0.5-0.3-0.9-0.9-1.3-1.3l-0.5-0.5c-0.4-0.3-0.8-0.6-1-1.1c0,0-0.1-0.2-0.2-0.2c-0.6-0.1-0.8-0.7-1.1-1.1c-0.3-0.5-0.6-0.9-1-1.3
		c-0.4-0.3-0.7-0.7-0.8-1.2c-0.1-0.3-0.3-0.6-0.6-0.8c-0.4-0.4-0.8-0.9-1.1-1.4c-0.4-0.4-0.7-0.8-1-1.2c-0.5-0.4-0.8-0.9-1-1.4
		s-0.5-0.9-0.8-1.3c-0.2-0.5-0.5-0.9-0.9-1.3c-0.2-0.2-0.4-0.7-0.6-1c-0.1-0.2-0.2-0.4-0.3-0.6l-0.3-0.2c-0.1,0.1-0.2,0.2-0.2,0.3
		C363.15,192.3,363.25,192.5,363.25,192.7z"></path>
	<path class="st0 AjudPWFj_7" d="M409.45,208.6c0-0.3,0-0.7,0.2-1.2c0.2-0.7,0.3-1.4,0.5-2.2l0.6-2.8c0.1-0.6,0.2-1.2,0.2-1.8
		c0.1-0.4,0.1-0.8,0.1-1.2c0-0.1,0-0.2,0.1-0.3c0-0.3,0.1-0.5,0.1-0.8c0.1-1.2,0.2-2.3,0.4-3.5c0.1-0.3-0.2-0.9-0.6-1
		c-0.4-0.1-0.9-0.2-1.3,0c-0.4,0-0.8,0.1-1.1-0.1c-0.1-0.1-0.3-0.1-0.4-0.1c-0.5,0.1-1,0.1-1.6,0.1c-0.5,0-1.1,0-1.6-0.1
		c-0.2,0-0.4,0.1-0.6,0.2c-0.3,0.2-0.8,0.3-1.2,0.4c-0.5,0-0.9,0-1.4,0.1c-0.5,0.1-1.1,0.2-1.6,0.4c-0.3,0-0.5,0.1-0.7,0.2
		c-0.3,0.1-0.5,0.3-0.5,0.6c0.1,0.7,0,1.5,0.2,2.1c0.1,0.1,0.1,0.2,0.1,0.3c-0.1,1,0.1,2,0.2,2.9v0.2c-0.1,1.1,0.2,2.1,0.4,3.2
		c0,0.7,0.1,1.3,0.2,2l0.3,1.3c0.1,0.1,0.2,0.2,0.2,0.3c0,0.8,0.2,1.5,0.1,2.3c0,0.5-0.3,0.8-0.6,1.2c-0.1,0-0.2,0.1-0.3,0.1
		c-0.4-0.1-0.8-0.2-1-0.5c-0.1-0.3-0.4-0.4-0.7-0.5c-1-0.2-1.6-0.9-1.9-1.9v-0.2c0.1-0.3,0-0.6-0.1-0.8c-0.2-0.3-0.3-0.7-0.5-1
		c-0.1-0.2-0.1-0.4-0.2-0.6c-0.2-0.3-0.2-0.7-0.2-1c-0.1-0.5-0.3-1-0.4-1.4c0-0.3-0.1-0.6-0.1-0.8c-0.1-1.4-0.3-2.7-0.6-3.9
		c0-0.1-0.1-0.1-0.1-0.2c0.2-0.9-0.3-1.8-0.3-2.8l-0.3-2.8c-0.1-0.3-0.4-0.6-0.2-0.9c-0.2-1-0.1-2-0.1-3v-7.4c0-1,0.2-2,0.2-3
		c0.1-0.2,0-0.4,0.1-0.5c0-0.8,0.1-1.5,0.2-2.3c0-0.7,0.1-1.5,0.2-2.2c0-0.6,0.1-1.1,0.2-1.7c0-0.2,0.1-0.4,0.1-0.6l0.3-2.2
		c0.1-1.2,0.1-2.5,0.3-3.8c0.1-0.6,0.2-1.4,0.5-2c0.2-0.6,0.4-1.2,0.6-1.8l1.2-3.8c0.2-0.6,0.5-1.1,0.7-1.7c0.2-1,0.8-1.9,1.2-2.8
		l0.2-0.5c0.2-0.4,0.4-0.8,0.7-1.2c0.1-0.1,0.2-0.2,0.3-0.4c0.2-0.5,0.7-0.9,1.1-1.4c0.2-0.1,0.3-0.3,0.5-0.6
		c0.3-0.6,0.8-0.8,1.4-0.4c0.3,0.1,0.5,0.1,0.8-0.1c0.5-0.4,1.1-0.2,1.6,0c0.5,0.2,0.9,0.3,1.4,0.4c0.6,0.1,1.1,0.2,1.5,0.6
		c0.1,0.1,0.2,0.2,0.3,0.2c0.5,0.3,1,0.6,1.3,1.1c0.2,0.4,0.6,0.8,1,1c0.3,0.3,0.6,0.5,0.7,0.9c0,0.2,0.1,0.3,0.2,0.4
		c0.6,0.8,1.2,1.6,1.6,2.5c0.2,0.4,0.4,0.9,0.5,1.3v0.1c0.5,0.8,0.6,1.8,0.8,2.7c0.1,0.1,0.1,0.3,0.1,0.5c-0.1,0.5,0.1,1.1,0.2,1.6
		c0.1,1,0.5,1.9,0.8,2.9c0.1,0.5,0.2,0.9,0.2,1.4c0,0.7,0.1,1.3,0.2,1.9v0.9c-0.1,0.4-0.1,0.7-0.1,1.1c0.2,0.8,0.2,1.6,0.2,2.3
		c-0.1,0.5,0.1,0.9,0.1,1.4c0.1,0.5,0,1.1,0,1.6c0,0.2,0,0.5,0.1,0.7c0.1,0.6,0.1,1.1,0.1,1.6c0.1,0.1,0,0.2,0,0.3
		c-0.2,0.7-0.1,1.3-0.1,2c0,0.4,0.1,0.8-0.2,1.1v0.2c0.1,0.7,0.1,1.3,0,1.9c-0.2,0.8,0,1.5-0.1,2.2c0,0.7,0.1,1.3,0.1,2
		c0,0.1-0.1,0.3-0.1,0.5c0,0-0.1,0.1-0.1,0.2c0.3,0.8-0.2,1.6-0.1,2.3c0,0.2-0.1,0.4-0.1,0.6c-0.5,1.3-0.6,2.7-0.7,4.1
		c-0.1,0.6,0.1,1.3,0,1.9c0,0.7-0.1,1.3-0.2,1.9c-0.2,1.5-0.6,2.9-0.9,4.4v0.1c0.1,0.5-0.1,1-0.2,1.5c0,0.5-0.2,1-0.3,1.5
		c-0.1,0.4-0.2,0.8-0.3,1.2l-0.6,2.2c-0.1,0.4-0.1,0.7-0.2,1c-0.1,0.8-0.8,1.2-1.5,0.8l-1-0.6c-0.2-0.2-0.4-0.4-0.4-0.6
		c-0.1-0.5-0.4-1-0.3-1.6V208.6z M412.45,166.7h0.1V166c0-0.5,0-0.9-0.2-1.3c-0.1-0.1-0.1-0.2-0.1-0.3c-0.2-1.1-0.4-2.2-0.7-3.3
		c-0.1-0.5-0.2-1-0.3-1.6l-0.3-1.6c0-0.1,0-0.2-0.1-0.3c-0.2-0.6-0.5-1.1-0.8-1.7c-0.1-0.5-0.4-0.8-0.6-1.2
		c-0.2-0.3-0.5-0.5-0.9-0.6c-0.4-0.2-0.9-0.4-1.4-0.5c-1.1-0.3-1.9-0.1-2.4,1c-0.3,0.6-0.5,1.3-0.9,1.8c-0.5,0.8-0.9,1.7-1.2,2.5
		c-0.7,1.3-1,2.7-1.2,4.1c-0.1,0.7-0.3,1.3-0.4,1.9c-0.2,0.7-0.4,1.4-0.7,2.1c-0.5,1.3-0.6,2.7-0.6,4.1c0,1-0.2,2-0.1,3
		c0,1.1-0.3,2.1-0.4,3.1c0,0.8-0.2,1.5-0.2,2.3v0.4c-0.3,0.5-0.2,1-0.3,1.6v0.7c0,0.6-0.1,1.1,0,1.6c0,0.2,0.1,0.3,0,0.4
		c-0.2,0.5-0.2,1.1-0.1,1.6c0.1,0.2,0,0.3,0,0.5c0,0.8-0.1,1.5,0.2,2.2c0.1,0.2,0,0.5,0,0.7c0,0.4,0,0.4,0.4,0.5
		c0.2,0,0.4,0,0.6-0.1c0.9-0.3,1.7-0.5,2.7-0.3h0.2c0.5-0.1,1-0.1,1.4-0.1c0.5,0,1-0.2,1.5-0.2h2.3c0.6,0,1.1,0.3,1.7,0h0.1
		c0.6,0.1,1.2,0.1,1.7,0.2c0.4,0,0.6-0.1,0.6-0.6v-0.4c0.3-1.6,0.3-3.2,0.3-4.8c0-0.6,0.1-1.3,0.1-1.9c0.1-0.9,0.1-1.8,0.2-2.6
		c0-0.6,0-1.2,0.1-1.8v-0.7c0-1.2,0-2.4,0.1-3.6c0-0.2,0.1-0.5,0-0.7c0-1-0.2-2-0.2-2.9C412.65,168.4,412.55,167.6,412.45,166.7z"></path>
	<path class="st0 AjudPWFj_8" d="M423.35,206.6c0-1,0-2-0.1-2.9c0-0.3,0.1-0.7,0.1-1v-0.3c-0.3-2.5-0.3-5.1-0.4-7.6c0-0.3-0.1-0.5-0.1-0.8
		s0-0.6,0-1v-1.1c0-1.5,0-3-0.1-4.5v-2c0-0.6,0.1-1.2,0.1-1.8c0-0.1,0.1-0.2,0-0.2c-0.2-1.4-0.1-2.8-0.1-4.1c0-1.5,0-3,0-4.5v-6.6
		c0-0.8,0.2-1.5,0.2-2.3v-0.3c0-1.5,0-3,0-4.5v-2c0.1-0.6,0.1-1.1,0-1.7c0-0.6-0.1-1.1-0.1-1.7c0-0.3,0.1-0.5,0.1-0.8
		c0.1-0.7,0.2-1.5,0.2-2.3c0-0.2,0-0.5,0.1-0.7c0.1-0.2,0.2-0.3,0.3-0.3c0.3-0.2,0.6-0.4,0.7-0.7c0-0.1,0.1-0.2,0.2-0.2
		c0.6-0.3,1.2-0.6,1.8-0.6c0.2,0,0.4,0,0.5,0.1c0.2,0.3,0.6,0.3,0.9,0.3c1-0.1,2-0.1,3,0c0.8,0,1.6,0.1,2.4,0.2
		c0.7,0.2,1.5,0.5,2.2,0.7l1.7,0.3c0.8,0.1,1.5,0.5,2.2,0.7c0.5,0.1,0.8,0.3,1.2,0.6c0.4,0.2,0.8,0.4,1.2,0.7c0.1,0,0.2,0.1,0.3,0.2
		c0.5,0.6,1.1,1,1.7,1.4c0.2,0.1,0.3,0.2,0.4,0.4c0.4,0.7,0.7,1.4,1,2.1c0.8,1.4,0.6,2.9,0.4,4.4c-0.1,1.3-0.5,2.4-1.1,3.5
		c-0.2,0.4-0.5,0.6-0.7,1c-0.6,0.7-1.4,1.3-1.9,2c-0.1,0.2-0.3,0.3-0.4,0.5c-0.1,0.1-0.2,0.3-0.4,0.3c-0.5,0.2-0.7,0.7-1.2,0.9
		c-0.4,0.1-0.8,0.5-1.1,0.8c-0.9,0.5-1.8,1.2-2.8,1.5c-0.3,0.1-0.6,0.1-0.8,0.2c-0.3,0.1-0.4,0.3-0.2,0.6c0.3,0.3,0.7,0.6,1,1
		c0.2,0.2,0.5,0.4,0.7,0.7l1.4,1.8c0.3,0.5,0.7,1,0.7,1.6c0,0.1,0,0.2,0.1,0.3c0.5,1.3,0.9,2.7,1.2,4.1c0.1,0.5,0.1,1.1,0.2,1.6
		c0.3,1.6,0.2,3.2,0.4,4.8c0.1,1,0.2,2,0.4,3c0.1,1,0.3,2,0.5,3c0.2,0.9,0.4,1.7,0.9,2.5c0.3,0.6,0.9,1.1,1.7,1.1h0.3
		c0.7,0.2,0.9,0.4,0.7,1.1c-0.2,0.8-0.7,1.2-1.5,1.2c-0.1,0-0.3,0-0.4,0h-0.5c-0.7-0.2-1.4-0.5-2.1-0.8c-0.3,0-0.5-0.2-0.7-0.4
		c-0.2-0.1-0.3-0.4-0.6-0.5c-0.4-0.2-0.6-0.4-0.8-0.8c-0.8-1.2-1.4-2.4-1.5-3.9c-0.1-1-0.4-2-0.5-3l-0.3-2.7c0-0.8,0-1.7-0.2-2.5
		c-0.1-0.8-0.1-1.6-0.2-2.4c-0.2-0.6-0.2-1.3-0.4-2c-0.2-0.5-0.2-1.1-0.3-1.6c-0.2-0.8-0.5-1.6-0.9-2.4c-0.1-0.2-0.3-0.4-0.5-0.6
		c-0.2-0.3-0.5-0.6-0.8-0.8c-0.7-0.9-1.5-1.7-2.6-2.1c-0.5-0.2-1-0.2-1.6-0.3c-0.4-0.1-0.6,0.2-0.5,0.6c0.1,0.3,0.1,0.6,0.1,0.9
		c0,0.6-0.1,1.2-0.1,1.8c0,1.1,0.1,2.2,0.1,3.3c0.1,0.3,0.1,0.6,0.2,1v0.3c0.1,1.3,0.1,2.6,0,3.9c0,0.8,0,1.5-0.4,2.3v0.2
		c0.3,0.6,0.2,1.2,0.2,1.8c-0.1,0.8,0,1.7,0.1,2.5v1.2c0.1,1.3,0.1,2.7,0.2,4.1c0,0.7,0.2,1.3,0.3,2c0.1,1,0.2,2,0.2,3
		c0,0.4-0.1,0.8-0.2,1.2v0.1c0.1,0.6-0.2,1.2-0.1,1.9v0.1c-0.1,0.9,0.1,1.7-0.1,2.6l-0.3,1.8c-0.1,0.6-0.3,0.8-1,0.8
		c-0.1,0-0.3,0-0.5,0.1c-1,0.1-1.7-0.4-2.3-1.2c-0.5-0.6-0.9-1.4-0.9-2.2C423.45,207.9,423.35,207.2,423.35,206.6z M440.95,159.6
		c0.1-0.6-0.2-1.3-0.4-2c-0.2-0.8-0.8-1.3-1.6-1.5c-0.6-0.2-1.2-0.3-1.7-0.5c-1-0.6-2.2-0.8-3.3-1c-1-0.2-2.1-0.3-3.2-0.3
		c-0.1,0-0.3,0-0.4-0.1c-0.6-0.1-1.1,0-1.7,0.1c-0.5,0.1-0.6,0.2-0.6,0.8c0,1.3,0.2,2.5,0.1,3.7c0,0.2,0.1,0.3,0.1,0.5
		c0.1,0.6,0.2,1.2,0,1.8c-0.1,0.6,0,1.1,0,1.7c-0.1,0.2,0,0.3,0,0.5c0,1.2,0.2,2.5,0,3.7c-0.1,0.1-0.1,0.2,0,0.3
		c0.1,0.4,0,0.9-0.1,1.4c-0.1,0.6-0.1,1.2-0.1,1.8c0,0.3,0.2,0.4,0.5,0.2c0.7-0.4,1.3-0.9,2.1-1.1c0.9-0.2,1.8-0.6,2.6-0.9l2.6-0.9
		c0.4-0.2,0.7-0.4,1-0.7c0.2-0.3,0.5-0.5,0.8-0.7c0.2-0.2,0.5-0.3,0.7-0.5c0.5-0.5,0.9-1,1.2-1.5c0.3-0.4,0.6-0.8,0.8-1.2
		C440.75,162.1,441.05,161,440.95,159.6z"></path>
	<path class="st0 AjudPWFj_9" d="M452.65,208.2c-0.1-1-0.3-2.3-0.4-3.6c-0.1-1-0.2-2.1-0.1-3.1c0.1-0.3,0.1-0.6,0-0.8c0-1.3-0.2-2.5-0.2-3.7
		c-0.1-1-0.2-2.1-0.2-3.2c0-0.4,0-0.8,0.1-1.2c0.2-0.7,0.1-1.5,0.1-2.2c-0.1-1-0.2-2.1-0.2-3.1c0-0.5,0.1-1,0.1-1.5
		c0-0.6-0.1-1.1,0.1-1.7c0-0.1,0-0.3,0-0.5v-1.3c0-0.3,0-0.5-0.1-0.8c-0.1-0.3-0.1-0.7-0.1-1c0-1,0-1.9-0.1-2.8c0-0.3,0-0.6-0.1-0.8
		c0-0.2,0-0.3,0-0.4v-3.4c-0.1-1.2,0-2.4,0.1-3.6c0.1-1.2,0-2.3,0.1-3.4c0-0.9,0.1-1.8,0.1-2.7c0-0.7,0-1.3,0-2v-0.9
		c0.1-0.2,0.1-0.5,0.1-0.7c0-1-0.1-2.1-0.1-3.1v-0.8c0-0.3,0.1-0.6,0.1-1c0-0.6,0.1-1.2-0.2-1.8c-0.1-0.4,0-0.7,0.3-0.9
		c0.2-0.2,0.3-0.3,0.3-0.6c-0.1-0.4,0.2-0.6,0.4-0.8l1.8-1.2c0.1-0.1,0.2,0,0.3,0c0.2,0.7,0.7,1,1.1,1.5c0.2,0.4,0.5,0.9,0.8,1.3
		c0.9,1.1,1.8,2.3,2.6,3.6c0.3,0.4,0.6,0.9,0.8,1.4c0.3,0.6,0.6,1.2,0.8,1.8c0.2,0.3,0.4,0.7,0.6,1.1c0.1,0.3,0.2,0.5,0.4,0.8
		c0,0.1,0,0.3,0.1,0.3c0.6,0.7,0.8,1.6,1,2.4c0.3,0.9,0.4,1.8,0.7,2.7c0.4,1.1,0.7,2.2,1.3,3.3c0.5,0.8,0.7,1.7,1.1,2.5
		c0.1,0.3,0.2,0.5,0.2,0.8c0.5,1.2,0.9,2.4,1.3,3.7c0.1,0.4,0.2,0.8,0.4,1.1c0.4,0.8,0.6,1.6,0.9,2.4c0.3,1.4,0.8,2.7,1.2,4.1
		c0.2,0.5,0.3,1,0.4,1.6c0.1,0.5,0.3,1,0.5,1.6c0.1,0.5,0.3,1.1,0.4,1.7c0.3,0.9,0.6,1.8,0.8,2.8c0.1,0.5,0.1,1,0.4,1.5v0.2
		c0.2,0.3,0.4,0.5,0.5,0.4c0.2-0.1,0.1-0.3,0.1-0.5v-1.4c0-0.1,0.1-0.3,0-0.4c-0.1-0.2-0.1-0.4,0.1-0.6c0-0.1,0-0.2,0.1-0.4
		c0-0.3,0-0.7,0-1v-0.2c-0.2-0.4,0-0.8,0.1-1.3c0-0.1,0.1-0.3,0.1-0.5c-0.1-0.4,0-0.7,0.1-1.1v-0.6c-0.1-0.3,0-0.7,0.1-1
		c0.2-0.2,0.4-0.4,0.3-0.7l0.1-0.1c0.6,0,0.2-0.4,0.2-0.7s0.1-0.5,0-0.8c-0.1-0.3-0.1-0.6-0.4-0.8c-0.1-0.1-0.2-0.3-0.1-0.4
		c0.2-0.3,0.1-0.5,0-0.7c-0.1-0.2,0-0.3,0-0.5c0-0.7,0.1-1.4,0.2-2v-0.3c0-0.8-0.1-1.7-0.1-2.5c-0.1-0.2,0-0.4,0-0.6
		c0.3-0.8,0.3-1.7,0.4-2.6c0-0.6,0.1-1.2,0.1-1.8v-0.1c0.1-1,0.1-2,0.2-3c0.1-1.1,0-2.2,0-3.3c0-0.3,0-0.6,0.1-0.9
		c0.1-0.2,0.1-0.4,0.1-0.6c0-0.5,0-1,0.1-1.5c0.1-0.8,0-1.6,0-2.4c0-0.3,0.1-0.6,0.1-1c0.1-0.8,0-1.7-0.2-2.5c0-0.5,0-1,0.1-1.5v-1
		c0-0.9,0.3-1.7,0.8-2.4c0.1-0.1,0.3-0.2,0.5-0.4l0.4-0.3c0.2-0.5,0.7-0.6,1.1-0.7c0.3-0.1,0.6,0,0.7,0.3c0.2,0.5,0.4,0.9,0.7,1.3
		c0.2,0.2,0.2,0.5,0.3,0.7c0.1,0.4,0.2,0.9,0.3,1.3v0.4c-0.1,1.3,0,2.6,0,3.9c0,0.8,0,1.7,0,2.5v0.3c-0.4,1-0.3,2.1-0.4,3.2
		c-0.1,0.8-0.1,1.7-0.1,2.6c-0.1,0.8-0.2,1.5-0.2,2.3c-0.1,0.5-0.2,0.9-0.1,1.4c0.1,0.3,0.1,0.7,0,1.1l-0.2,2c-0.2,1-0.2,2-0.3,3
		c0,0.8-0.1,1.7-0.2,2.5v0.3c0.1,0.9-0.1,1.7-0.1,2.6c0,0.8-0.2,1.5-0.3,2.3v0.1c0.1,0.8,0,1.6,0,2.4l-0.3,2.9c0,0.5-0.1,1-0.1,1.6
		c0,0.8,0,1.7,0,2.6v1.6c0,0.9,0,1.8,0,2.6v4.3c0,0.6-0.1,1.3-0.1,1.9c0,0.4,0,0.8,0.1,1.2c0,0.6-0.1,1.2-0.3,1.8
		c-0.1,0.2-0.2,0.5-0.2,0.8c0,0.3,0,0.5-0.2,0.8c-0.5,0.5-0.7,1.2-0.9,1.8c-0.2,0.5-0.5,0.8-1,1c-1.4,0.4-2.2,0.1-2.8-1.2l-1.2-2.1
		c-0.3-1-0.6-1.9-0.7-2.9c0-0.4-0.1-0.7-0.2-1c0-0.5-0.1-1-0.1-1.6c0,0,0-0.1-0.1-0.1c-0.4-1.1-0.4-2.1-0.6-3.2
		c-0.1-0.7-0.2-1.4-0.5-2c-0.5-1-0.7-2.1-0.9-3.1c-0.2-0.6-0.4-1.1-0.5-1.7c-0.1-0.1-0.1-0.2-0.1-0.3c-0.1-1.2-0.6-2.3-0.9-3.4
		c-0.3-0.6-0.5-1.3-0.6-2c0-0.2,0-0.3-0.1-0.4c-0.3-0.8-0.4-1.5-0.7-2.3c-0.4-0.9-0.7-1.7-1-2.6c-0.1-0.5-0.3-1-0.5-1.4
		c-0.6-1.2-0.9-2.5-1.2-3.7c-0.2-0.7-0.5-1.3-0.7-2c-0.6-0.9-0.8-1.9-1.4-2.7c-0.5-0.8-0.7-1.7-0.9-2.5c-0.2-1-0.5-1.9-0.7-2.8
		c0-0.1,0-0.2-0.1-0.3c-0.4-0.9-0.9-1.8-1.3-2.6c-0.1-0.2-0.3-0.4-0.4-0.5c-0.1-0.2-0.3-0.3-0.4-0.2c-0.1,0.1-0.2,0.3-0.2,0.4
		c0,1.2,0,2.5-0.1,3.7l-0.1,1c-0.1,0.9-0.1,1.7-0.1,2.5c-0.1,0.5-0.1,0.9-0.1,1.4c0,0.6,0.1,1.2-0.1,1.8v0.5c0.3,1.5,0.2,3,0.3,4.5
		c0.1,0.5,0.1,1,0.1,1.5v4.5c0,2.4,0,4.8,0,7.2v3.3c0,1.5,0.1,3,0.2,4.4c0,0.9,0.1,1.7,0.1,2.6c0,0.7-0.1,1.4,0.1,2.1v0.1
		c-0.1,0.7,0.1,1.4,0.2,2.1c0.1,1.4,0.2,2.9,0.6,4.2c0.2,0.6,0.2,0.6-0.3,0.9c-0.5,0.2-0.9,0.5-1.4,0.8c-0.2,0.2-0.5,0.3-0.8,0.5
		c-0.7,0.3-1.2,0.1-1.6-0.5C452.65,210.5,452.55,209.5,452.65,208.2z"></path>
	<path class="st0 AjudPWFj_10" d="M485.85,161.9c0-0.2,0.1-0.5,0.2-0.8l0.3-1.1c0.1-0.3,0.2-0.4,0.4-0.7c0.5-0.5,1-1,1.7-1.4
		c0.1,0,0.2-0.1,0.3-0.1c0.8,0,1.6-0.5,2.5-0.4c0.4,0.1,0.7,0.2,0.9,0.6c0.6,0.8,0.9,1.6,0.7,2.6c0,0.2-0.1,0.4-0.2,0.5l-0.3,0.9
		c-0.3,0.4-0.6,0.7-0.8,1.1l-0.7,0.9c-0.3,0.5-0.8,0.8-1.4,0.9c-0.5,0.1-1,0.1-1.5,0.1c-0.1,0-0.3-0.1-0.4-0.2
		c-0.3-0.3-0.6-0.5-0.8-0.8C486.35,163.3,485.85,162.8,485.85,161.9z M486.45,197.1c0.1-0.5,0.1-1,0.2-1.5v-0.3
		c-0.1-0.9,0-1.7,0-2.6c0-0.8,0-1.6,0.1-2.4c0.1-0.4,0.3-0.8,0.2-1.2c-0.2-0.8,0-1.5-0.1-2.2c0-2.1,0-4.2,0.1-6.3
		c0-0.6,0.1-1.3,0.1-1.9c0.1-0.1,0.1-0.2,0.1-0.3c-0.2-0.7-0.2-1.5,0-2.2c0.1-0.4,0-0.8,0.1-1.2c0.2-0.8,0.1-1.5,0.2-2.2
		c0-0.3,0.2-0.5,0.3-0.7l0.3-0.6c0-0.5,0.4-0.8,0.8-1.1c0.2-0.2,1.6-0.2,1.9,0c0.2,0.2,0.4,0.5,0.5,0.8c0.2,0.3,0.3,0.7,0.5,1.1
		c0,0.1,0.1,0.3,0,0.4c-0.3,0.3-0.1,0.6-0.1,0.9c0,0.7,0.2,1.4,0.1,2.1c-0.1,0.7,0.1,1.4,0.1,2.1c0,0.3,0,0.5,0,0.8v2.5
		c0,0.1,0,0.3,0,0.4l0.1,0.4c-0.2,0.7,0.1,1.4,0.1,2.1c0,0.3-0.1,0.6-0.2,0.8c-0.1,0.6,0,1.2,0,1.7c0.1,0.7,0.1,1.4,0.1,2
		c0,0.3-0.1,0.6-0.1,0.8c-0.1,0.5-0.1,0.9-0.1,1.4c-0.1,0.8,0.1,1.6,0.3,2.3c0.1,0.4,0.2,0.7,0.1,1c-0.1,0.4-0.1,0.8,0,1.1
		c0.1,0.4,0.1,0.7-0.2,1c-0.2,0.2-0.2,0.5-0.1,0.8c0.1,0.1,0,0.3,0,0.5c0,0.1-0.1,0.3,0,0.5c0.1,0.8-0.2,1.5-0.6,2.1
		c-0.3,0.6-0.8,1.2-1.6,1c-0.7-0.1-1.4-0.3-2-0.5c-0.6-0.3-1-0.9-1-1.6C486.55,198.3,486.55,197.7,486.45,197.1z"></path>
	<path class="st0 AjudPWFj_11" d="M505.15,157c0.1,0.9,0,1.7,0,2.5c-0.1,1.1,0,2.3,0.3,3.4c0.1,0.2,0.1,0.5,0.2,0.8c0,1.6,0,3.1,0.1,4.7
		c0,0.3,0.1,0.5,0.1,0.8l0.2,1.4c0,0.6-0.1,1.2,0.2,1.8v0.8c0,1.4,0.1,2.8,0.3,4.2c0.1,0.9,0.2,1.8,0.2,2.7c0.1,0.4,0.1,0.8,0.2,1.2
		c0.1,0.2,0.1,0.5,0.1,0.7c-0.1,1.2,0.1,2.3,0.4,3.5c0.1,0.4,0.2,0.7,0.4,1.1c0.3,1,0.6,2,0.8,3.1c0.2,1.6,0.6,3.2,1.2,4.7
		c0,0.2,0,0.3,0.1,0.5c0.3,1.2,0.6,2.5,1,3.7c0.3,1.2,0.4,2.3,0.6,3.5c0.1,0.6,0.2,1.2,0.8,1.5c0.4,0.4,0.6,0.3,0.7-0.2
		c0.2-0.5,0.2-1,0.3-1.5c0.1-0.4,0.3-0.7,0.4-1.1l0.3-0.8c0-0.1,0-0.2,0.1-0.3c0.3-0.5,0.4-1.2,0.6-1.8c0.1-0.6,0.3-1.3,0.5-1.9
		c0.4-1,0.7-2,0.7-3.1c0-0.1,0-0.2,0.1-0.3c0.2-0.8,0.2-1.6,0.3-2.3c0.1-0.5,0.1-1.1,0.3-1.6c0.2-0.3,0.2-0.6,0.2-0.9
		c0-0.4,0.2-0.8,0.3-1.2c0.1-0.4,0.1-0.8,0.2-1.1l0.2-0.5c0-0.2,0-0.4,0.1-0.6v-0.2c0.4-0.5,0.2-1.1,0.4-1.6
		c0.1-0.2,0.1-0.4,0.1-0.5c0-0.5,0-0.9,0.2-1.2c0-0.1,0.1-0.1,0.1-0.1c0-0.8,0.1-1.5,0.2-2.3c0.1-0.8,0-1.6,0.2-2.3
		c0-0.1,0.1-0.1,0.1-0.2c-0.3-0.4,0-0.8,0-1.2V172c0-0.1,0.1-0.2,0.1-0.3c0-0.3,0.1-0.5,0.1-0.8c0.1-0.2,0.1-0.4,0.1-0.5
		c0.1-0.2,0.1-0.4,0.1-0.6c-0.1-0.2,0-0.5,0-0.7c0-0.8,0.1-1.6,0.1-2.4c0.1-1.1,0.2-2.1,0.2-3.2c0-1,0.3-2,0.5-3
		c0-0.4,0.1-0.9,0.1-1.3c0-1.5,0-3,0-4.5v-0.2c0.3-0.9,0-1.7-0.1-2.5c0-0.3,0-0.7,0.1-1l0.6-1.7c0.1-0.1,0.1-0.2,0.1-0.4
		c0.2-0.9,0.9-1.4,1.9-1.1c0.5,0.1,0.8,0.5,1.2,0.8c0.3,0.3,0.7,0.6,0.6,1.2c0.5,0.6,0.3,1.5,0.7,2.3c0.1,0.3,0.1,0.6,0.2,0.9
		c0,0.4,0.1,0.8,0.2,1.1c0.2,0.5,0.1,1,0.1,1.5c-0.1,0.2-0.2,0.4-0.2,0.7c-0.1,0.8-0.2,1.7-0.2,2.5c-0.1,0.6-0.1,1.2-0.2,1.8
		c-0.1,1.1-0.1,2.1-0.3,3.1c-0.1,0.3-0.1,0.5-0.1,0.7l-0.3,1.7c0,0.3,0,0.6-0.1,1c0,0.4-0.1,0.9-0.1,1.3l-0.3,3.5
		c-0.1,0.4-0.2,0.8-0.2,1.2c-0.1,0.3-0.1,0.5-0.1,0.8l-0.3,2.7c-0.1,0.4-0.1,0.9-0.1,1.3l-0.3,1.2c-0.1,0.8-0.4,1.5-0.4,2.3
		c0,0.6-0.1,1.3-0.3,1.9c-0.2,0.4-0.2,0.9-0.3,1.3c-0.1,0.1,0,0.3-0.1,0.4c-0.3,0.7-0.4,1.5-0.7,2.3c-0.1,0.4-0.1,0.8-0.2,1.2
		l-0.3,1.6c-0.2,0.7-0.4,1.4-0.5,2.1c-0.1,0.6-0.2,1.1-0.3,1.6l-0.3,1.3c-0.2,1.3-0.6,2.6-1,3.8c-0.3,0.8-0.6,1.6-0.8,2.4
		c-0.1,0.6-0.4,1.2-0.6,1.8c-0.2,0.6-0.3,1.2-0.4,1.8c-0.1,0.5-0.2,1.1-0.4,1.6l-0.6,2.9c-0.1,0.5-0.2,0.9-0.7,1
		c-0.2,0-0.3,0.2-0.4,0.4c0,0.3-0.2,0.4-0.4,0.4c-0.6-0.1-1,0.1-1.4,0.4c-0.6,0.6-1.3,0.3-2,0.2c-0.3-0.2-0.7-0.3-0.8-0.5
		c-0.2-0.2-0.1-0.5-0.1-0.8c-0.1-0.2-0.1-0.4-0.2-0.6c-0.3-0.8-0.5-1.8-1-2.6c-0.1-0.3-0.3-0.6-0.4-1c-0.1-0.4-0.3-0.9-0.5-1.3
		c-0.2-0.5-0.2-1.1-0.6-1.5c-0.3-0.8-0.6-1.6-0.7-2.4c0-0.9-0.4-1.7-0.4-2.6c0-0.5-0.3-1-0.5-1.4c-0.1-0.4-0.3-0.7-0.3-1.1
		c-0.2-0.6-0.5-1.2-0.6-1.9V194c-0.6-0.9-0.7-1.9-1.1-2.9c-0.2-0.4-0.2-0.8-0.3-1.3c-0.1-1.1-0.5-2.2-0.8-3.2
		c-0.3-0.7-0.5-1.4-0.6-2.2c0-0.4-0.1-0.7-0.2-1c-0.2-0.4-0.2-0.7-0.2-1.1l-0.3-1.1c-0.2-0.4-0.2-0.9-0.2-1.3
		c-0.1-0.6-0.1-1.1-0.1-1.6c0-0.3-0.2-0.6-0.2-0.8c0-0.3,0.2-0.5,0-0.8c-0.3-0.6-0.4-1.2-0.5-1.8v-0.4c0.1-0.7,0-1.3-0.3-1.9
		c-0.1-0.2-0.1-0.4-0.1-0.7c0.1-0.5,0-1.1,0-1.6c-0.1-1-0.2-1.9-0.3-2.9V167c-0.1-0.1-0.1-0.2-0.1-0.3c0.2-0.9-0.2-1.7-0.2-2.6V164
		c0.2-0.7,0-1.4-0.3-2.1v-0.3c0-1,0.1-2.1,0-3.1c0-0.4-0.1-0.8-0.1-1.3c0-0.2,0-0.4,0-0.6l0.6-2.9c-0.2-0.7,0.2-1.3,0.2-2
		c-0.1-0.1,0-0.3,0-0.4c0.2-0.4,0.3-0.7,0.5-1c0.2-0.4,0.3-0.8,0.2-1.2c-0.1-0.5,0.1-0.8,0.5-1.1c0.3-0.1,0.5-0.3,0.7-0.4l0.3-0.3
		c0.6-0.5,1.1-0.5,1.6,0.2c0.1,0.2,0.3,0.4,0.5,0.5c0.4,0.5,0.6,1.1,0.6,1.7c0.1,0.8,0.1,1.7,0.2,2.5l0.3,3.2
		C505.25,156,505.15,156.5,505.15,157z"></path>
	<path class="st0 AjudPWFj_12" d="M548.15,208.6c0-0.3,0-0.7,0.2-1.2c0.2-0.7,0.3-1.4,0.5-2.2l0.6-2.8c0.1-0.6,0.2-1.2,0.2-1.8
		c0.1-0.4,0.1-0.8,0.1-1.2c0-0.1,0-0.2,0.1-0.3c0-0.3,0.1-0.5,0.1-0.8c0.1-1.2,0.2-2.3,0.4-3.5c0.1-0.3-0.2-0.9-0.6-1
		c-0.4-0.1-0.9-0.2-1.3,0c-0.4,0-0.8,0.1-1.1-0.1c-0.1-0.1-0.3-0.1-0.4-0.1c-0.5,0.1-1,0.1-1.6,0.1c-0.5,0-1.1,0-1.6-0.1
		c-0.2,0-0.4,0.1-0.6,0.2c-0.3,0.2-0.8,0.3-1.2,0.4c-0.5,0-0.9,0-1.4,0.1c-0.5,0.1-1.1,0.2-1.6,0.4c-0.3,0-0.5,0.1-0.7,0.2
		c-0.3,0.1-0.5,0.3-0.5,0.6c0.1,0.7,0,1.5,0.2,2.1c0.1,0.1,0.1,0.2,0.1,0.3c-0.1,1,0.1,2,0.2,2.9v0.2c-0.1,1.1,0.2,2.1,0.4,3.2
		c0,0.7,0.1,1.3,0.2,2l0.3,1.3c0.1,0.1,0.2,0.2,0.2,0.3c0,0.8,0.2,1.5,0.1,2.3c0,0.5-0.3,0.8-0.6,1.2c-0.1,0-0.2,0.1-0.3,0.1
		c-0.4-0.1-0.8-0.2-1-0.5c-0.1-0.3-0.4-0.4-0.7-0.5c-1-0.2-1.6-0.9-1.9-1.9v-0.2c0.1-0.3,0-0.6-0.1-0.8c-0.2-0.3-0.3-0.7-0.5-1
		c-0.1-0.2-0.1-0.4-0.2-0.6c-0.2-0.3-0.2-0.7-0.2-1c-0.1-0.5-0.3-1-0.4-1.4c0-0.3-0.1-0.6-0.1-0.8c-0.1-1.4-0.3-2.7-0.6-3.9
		c0-0.1-0.1-0.1-0.1-0.2c0.2-0.9-0.3-1.8-0.3-2.8l-0.3-2.8c-0.1-0.3-0.4-0.6-0.2-0.9c-0.2-1-0.1-2-0.1-3v-7.4c0-1,0.2-2,0.2-3
		c0.1-0.2,0-0.4,0.1-0.5c0-0.8,0.1-1.5,0.2-2.3c0-0.7,0.1-1.5,0.2-2.2c0-0.6,0.1-1.1,0.2-1.7c0-0.2,0.1-0.4,0.1-0.6l0.3-2.2
		c0.1-1.2,0.1-2.5,0.3-3.8c0.1-0.6,0.2-1.4,0.5-2c0.2-0.6,0.4-1.2,0.6-1.8l1.2-3.8c0.2-0.6,0.5-1.1,0.7-1.7c0.2-1,0.8-1.9,1.2-2.8
		l0.2-0.5c0.2-0.4,0.4-0.8,0.7-1.2c0.1-0.1,0.2-0.2,0.3-0.4c0.2-0.5,0.7-0.9,1.1-1.4c0.2-0.1,0.3-0.3,0.5-0.6
		c0.3-0.6,0.8-0.8,1.4-0.4c0.3,0.1,0.5,0.1,0.8-0.1c0.5-0.4,1.1-0.2,1.6,0c0.5,0.2,0.9,0.3,1.4,0.4c0.6,0.1,1.1,0.2,1.5,0.6
		c0.1,0.1,0.2,0.2,0.3,0.2c0.5,0.3,1,0.6,1.3,1.1c0.2,0.4,0.6,0.8,1,1c0.3,0.3,0.6,0.5,0.7,0.9c0,0.2,0.1,0.3,0.2,0.4
		c0.6,0.8,1.2,1.6,1.6,2.5c0.2,0.4,0.4,0.9,0.5,1.3v0.1c0.5,0.8,0.6,1.8,0.8,2.7c0.1,0.1,0.1,0.3,0.1,0.5c-0.1,0.5,0.1,1.1,0.2,1.6
		c0.1,1,0.5,1.9,0.8,2.9c0.1,0.5,0.2,0.9,0.2,1.4c0,0.7,0.1,1.3,0.2,1.9v0.9c-0.1,0.4-0.1,0.7-0.1,1.1c0.2,0.8,0.2,1.6,0.2,2.3
		c-0.1,0.5,0.1,0.9,0.1,1.4c0.1,0.5,0,1.1,0,1.6c0,0.2,0,0.5,0.1,0.7c0.1,0.6,0.1,1.1,0.1,1.6c0.1,0.1,0,0.2,0,0.3
		c-0.2,0.7-0.1,1.3-0.1,2c0,0.4,0.1,0.8-0.2,1.1v0.2c0.1,0.7,0.1,1.3,0,1.9c-0.2,0.8,0,1.5-0.1,2.2c0,0.7,0.1,1.3,0.1,2
		c0,0.1-0.1,0.3-0.1,0.5c0,0-0.1,0.1-0.1,0.2c0.3,0.8-0.2,1.6-0.1,2.3c0,0.2-0.1,0.4-0.1,0.6c-0.5,1.3-0.6,2.7-0.7,4.1
		c-0.1,0.6,0.1,1.3,0,1.9c0,0.7-0.1,1.3-0.2,1.9c-0.2,1.5-0.6,2.9-0.9,4.4v0.1c0.1,0.5-0.1,1-0.2,1.5c0,0.5-0.2,1-0.3,1.5
		c-0.1,0.4-0.2,0.8-0.3,1.2l-0.6,2.2c-0.1,0.4-0.1,0.7-0.2,1c-0.1,0.8-0.8,1.2-1.5,0.8l-1-0.6c-0.2-0.2-0.4-0.4-0.4-0.6
		c-0.1-0.5-0.4-1-0.3-1.6V208.6z M551.15,166.7h0.1V166c0-0.5,0-0.9-0.2-1.3c-0.1-0.1-0.1-0.2-0.1-0.3c-0.2-1.1-0.4-2.2-0.7-3.3
		c-0.1-0.5-0.2-1-0.3-1.6l-0.3-1.6c0-0.1,0-0.2-0.1-0.3c-0.2-0.6-0.5-1.1-0.8-1.7c-0.1-0.5-0.4-0.8-0.6-1.2
		c-0.2-0.3-0.5-0.5-0.9-0.6c-0.4-0.2-0.9-0.4-1.4-0.5c-1.1-0.3-1.9-0.1-2.4,1c-0.3,0.6-0.5,1.3-0.9,1.8c-0.5,0.8-0.9,1.7-1.2,2.5
		c-0.7,1.3-1,2.7-1.2,4.1c-0.1,0.7-0.3,1.3-0.4,1.9c-0.2,0.7-0.4,1.4-0.7,2.1c-0.5,1.3-0.6,2.7-0.6,4.1c0,1-0.2,2-0.1,3
		c0,1.1-0.3,2.1-0.4,3.1c0,0.8-0.2,1.5-0.2,2.3v0.4c-0.3,0.5-0.2,1-0.3,1.6v0.7c0,0.6-0.1,1.1,0,1.6c0,0.2,0.1,0.3,0,0.4
		c-0.2,0.5-0.2,1.1-0.1,1.6c0.1,0.2,0,0.3,0,0.5c0,0.8-0.1,1.5,0.2,2.2c0.1,0.2,0,0.5,0,0.7c0,0.4,0,0.4,0.4,0.5
		c0.2,0,0.4,0,0.6-0.1c0.9-0.3,1.7-0.5,2.7-0.3h0.2c0.5-0.1,1-0.1,1.4-0.1c0.5,0,1-0.2,1.5-0.2h2.3c0.6,0,1.1,0.3,1.7,0h0.1
		c0.6,0.1,1.2,0.1,1.7,0.2c0.4,0,0.6-0.1,0.6-0.6v-0.4c0.3-1.6,0.3-3.2,0.3-4.8c0-0.6,0.1-1.3,0.1-1.9c0.1-0.9,0.1-1.8,0.2-2.6
		c0-0.6,0-1.2,0.1-1.8v-0.7c0-1.2,0-2.4,0.1-3.6c0-0.2,0.1-0.5,0-0.7c0-1-0.2-2-0.2-2.9C551.35,168.4,551.25,167.6,551.15,166.7z"></path>
	<path class="st0 AjudPWFj_13" d="M561.44,204.1c0-1.7,0.1-3.3,0.1-4.9c0-0.7,0.1-1.3,0.2-1.9c0-0.4-0.1-0.8-0.1-1.2c0-0.1-0.1-0.3,0-0.5
		c0.2-0.4,0.1-0.8,0.1-1.2c0-0.3,0.1-0.7,0.1-1.1c-0.1-1.2,0-2.5,0-3.7c0-0.7,0.1-1.4,0.1-2c0-0.4-0.1-0.8-0.1-1.2v-0.2
		c0.2-0.8-0.1-1.6,0.1-2.5c0.1-0.8,0-1.6,0-2.5c0.1-1.3,0.1-2.7,0.3-4c0.1-0.9,0.1-1.8,0.1-2.7c0.1-0.7,0.2-1.5,0.2-2.2
		c0.1-0.1,0.1-0.2,0.1-0.3c0-0.9,0-1.7,0.1-2.6c0.1-0.7,0.2-1.4,0.2-2.2c0.1-0.7,0.1-1.5,0.2-2.2c0-0.5,0.1-1,0.1-1.5
		s-0.1-1-0.1-1.5c0-0.6,0.1-1.1,0.2-1.7c0.1-0.5,0.1-1.1,0.1-1.6c0.1-0.8,0.1-1.6,0.2-2.5c0-0.4,0.1-0.8,0.2-1.2
		c0.1-0.7,0.3-1.5-0.1-2.2c-0.1-0.2-0.1-0.3,0-0.5c0.2-0.1,0.3-0.3,0.4-0.4c0.3-0.1,0.5-0.3,0.7-0.6c0.3-0.4,0.6-0.6,1.1-0.6
		c0.3,0,0.5,0,0.7-0.2c0.1,0,0.3-0.1,0.3,0c0.6,0.3,1.2,0.4,1.6,1c0.3,0.5,0.6,0.8,0.9,1.2c0.3,0.2,0.4,0.4,0.4,0.7
		c0,0.4,0,0.8,0.2,1.1v0.3c-0.5,0.9-0.4,1.8-0.3,2.8c0,0.7,0.1,1.3,0.1,2l-0.3,3.7c0,0.3-0.2,0.5-0.2,0.8c-0.1,0.7-0.2,1.4,0.1,2.2
		c0.1,0.1,0,0.3,0,0.5c0,0.3-0.1,0.5-0.1,0.8c-0.2,0.7-0.3,1.5-0.4,2.2c0,0.4-0.1,0.7-0.2,1.1c0,0.5,0,1.1,0,1.6v0.3
		c-0.2,0.7-0.3,1.3,0,2c0.1,0.3,0.1,0.6-0.1,1c0,0,0,0.1-0.1,0.2c-0.1,0.6-0.2,1.2-0.3,1.8v0.6c0.2,0.4,0.2,0.8,0,1.2v0.3
		c0.3,0.8,0,1.6,0,2.5c0,0.6-0.2,1.2,0,1.8c0.1,0.4,0,0.8-0.1,1.2c-0.1,0.2,0,0.5,0,0.7c0,0.4,0,0.7-0.1,1.1c0,0.4-0.1,0.8,0.1,1.2
		c0.1,0.1,0.1,0.3,0.1,0.4c0,0.6-0.1,1.3-0.1,1.9v1.8c0,0.8-0.1,1.6-0.1,2.5c0,0.3,0,0.6,0.1,0.9c0.1,0.7,0.1,1.3,0.1,1.9
		c-0.1,0.4,0,0.8,0.1,1.2v0.7c0,0.2,0,0.4,0.1,0.6c0.1,0.3,0.1,0.6,0,0.9c-0.2,0.5-0.3,0.9-0.4,1.4c0,0.1,0,0.2,0,0.3v3.2
		c0,0.5,0.2,0.6,0.6,0.6c0.5,0,1-0.1,1.5-0.1c0.8,0,1.6-0.2,2.4-0.4c1.1-0.2,2.1-0.4,3.2-0.7c0.3,0,0.6-0.2,0.9-0.3
		c0.5-0.3,1.1-0.5,1.6-0.6c0.7-0.2,1.3-0.4,1.9-0.5c0.2-0.1,0.3-0.1,0.4,0c0.3,0,0.5,0.1,0.7,0c0.1-0.1,0.2-0.1,0.3,0
		c0.4,0,0.8,0.1,1.2,0.1c0.5,0.1,0.5,0.1,0.6,0.6c0.1,0.3,0.2,0.6,0,1c-0.1,0.1-0.1,0.3,0,0.4c0.3,0.5,0.2,1,0.1,1.5
		c0,0.5-0.4,0.8-0.8,0.9c-0.5,0.1-1,0.2-1.4,0.2c-0.6,0-1.1,0.1-1.5,0.4c-0.2,0.3-0.5,0.4-0.9,0.5c-0.2,0-0.4,0.2-0.6,0.3
		c-0.3,0.3-0.7,0.4-1.1,0.3c-0.3,0-0.6,0.1-1,0.3c-0.7,0.4-1.6,0.6-2.5,0.8c-0.4,0-0.7,0.1-1.1,0.3c-0.5,0.1-1,0.1-1.6,0.1
		c-0.1-0.1-0.3-0.1-0.4,0c-0.5,0.3-1,0.2-1.6,0.3c-0.5,0-1.1-0.1-1.7-0.1c-0.7,0-1.2-0.2-1.8-0.4c-0.3-0.1-0.6-0.3-0.8-0.6
		c-0.6-0.6-1.2-1.2-1.7-1.8c-0.2-0.2-0.3-0.4-0.4-0.6c-0.4-0.6-0.7-1.2-0.8-1.9C561.64,205.8,561.34,204.9,561.44,204.1z"></path>
</g>
<style data-made-with="vivus-instant">.AjudPWFj_0{stroke-dasharray:277 279;stroke-dashoffset:278;animation:AjudPWFj_draw 1666ms linear 0ms forwards;}.AjudPWFj_1{stroke-dasharray:279 281;stroke-dashoffset:280;animation:AjudPWFj_draw 1666ms linear 64ms forwards;}.AjudPWFj_2{stroke-dasharray:331 333;stroke-dashoffset:332;animation:AjudPWFj_draw 1666ms linear 128ms forwards;}.AjudPWFj_3{stroke-dasharray:279 281;stroke-dashoffset:280;animation:AjudPWFj_draw 1666ms linear 192ms forwards;}.AjudPWFj_4{stroke-dasharray:279 281;stroke-dashoffset:280;animation:AjudPWFj_draw 1666ms linear 256ms forwards;}.AjudPWFj_5{stroke-dasharray:265 267;stroke-dashoffset:266;animation:AjudPWFj_draw 1666ms linear 320ms forwards;}.AjudPWFj_6{stroke-dasharray:277 279;stroke-dashoffset:278;animation:AjudPWFj_draw 1666ms linear 384ms forwards;}.AjudPWFj_7{stroke-dasharray:279 281;stroke-dashoffset:280;animation:AjudPWFj_draw 1666ms linear 448ms forwards;}.AjudPWFj_8{stroke-dasharray:265 267;stroke-dashoffset:266;animation:AjudPWFj_draw 1666ms linear 512ms forwards;}.AjudPWFj_9{stroke-dasharray:331 333;stroke-dashoffset:332;animation:AjudPWFj_draw 1666ms linear 576ms forwards;}.AjudPWFj_10{stroke-dasharray:91 93;stroke-dashoffset:92;animation:AjudPWFj_draw 1666ms linear 641ms forwards;}.AjudPWFj_11{stroke-dasharray:257 259;stroke-dashoffset:258;animation:AjudPWFj_draw 1666ms linear 705ms forwards;}.AjudPWFj_12{stroke-dasharray:279 281;stroke-dashoffset:280;animation:AjudPWFj_draw 1666ms linear 769ms forwards;}.AjudPWFj_13{stroke-dasharray:162 164;stroke-dashoffset:163;animation:AjudPWFj_draw 1666ms linear 833ms forwards;}@keyframes AjudPWFj_draw{100%{stroke-dashoffset:0;}}@keyframes AjudPWFj_fade{0%{stroke-opacity:1;}94.02985074626866%{stroke-opacity:1;}100%{stroke-opacity:0;}}</style></svg>
